%FSTAX24Y24*%
%MOIN*%
%IN LAYER1.GBR *%
%ADD10C,0.0390*%
%ADD11C,0.0400*%
%ADD12C,0.0500*%
%ADD13C,0.0750*%
%ADD14C,0.1575*%
D13*X005Y003D03*Y01D03*X004Y003D03*Y007D03*D12*X0107Y0012D03*D13*
X004Y005D03*Y004D03*Y008D03*D12*X007Y0049D03*D13*X011Y009D03*
X01Y006D03*X008Y01D03*X004Y009D03*X01Y003D03*X007D03*D14*X013Y013D03*
D13*X004Y011D03*X007Y01D03*X01Y005D03*Y004D03*X013Y009D03*D14*
X001Y013D03*D13*X007Y004D03*X004Y01D03*X01Y008D03*X006Y01D03*
X008Y004D03*X006D03*X009Y003D03*X013Y011D03*X008Y003D03*X01Y007D03*
X005Y004D03*X01Y011D03*D12*X0113Y0043D03*D13*X01Y01D03*Y009D03*D14*
X001Y001D03*X013D03*D13*X011Y011D03*X006Y003D03*D12*X008Y0049D03*D11*
X013Y009D02*G01Y005D01*X01D01*X004Y011D02*X005Y012D01*X01D01*
X011Y011D01*X004Y009D02*X003D01*X001Y013D01*X01Y011D02*X011Y01D01*
X012D01*X013Y011D01*X009Y0033D02*Y0059D01*X006D01*Y0043D01*
X007Y0027D02*Y0015D01*X0023D01*Y008D01*X0037D01*X0097D02*X007D01*
Y0097D01*D10*X0107Y0012D02*X0113Y0016D01*Y0041D01*X008D02*Y0047D01*
X007Y0041D02*Y0047D01*X006Y0098D02*Y007D01*X0097D01*
M02*