M48
FMAT,2
INCH,LZ
T1C0.0360
T2C0.0450
T3C0.1260
%
T1
X0113Y0043
X008Y0049
X0107Y0012
X007Y0049
T2
X008Y003
X01Y007
X01Y011
X006Y003
X01Y009
X005Y004
X013Y011
X011Y011
X01Y01
X007Y004
X01Y006
X004Y01
X004Y005
X006Y01
X004Y004
X004Y008
X011Y009
X01Y008
X004Y007
X013Y009
X01Y005
X009Y003
X005Y01
X004Y003
X01Y004
X01Y003
X007Y01
X006Y004
X007Y003
X004Y011
X008Y004
X008Y01
X004Y009
X005Y003
T3
X013Y001
X001Y001
X013Y013
X001Y013
M30
