%FSTAX24Y24*%
%MOIN*%
%IN SILK1.GBR *%
%ADD10C,0.0043*%
%ADD11C,0.0050*%
%ADD12C,0.0057*%
D10*X004929Y009371D02*G01X004886Y009329D01*Y009243D01*X004929Y0092D01*
X0051D01*X005143Y009243D01*Y009329D01*X0051Y009371D01*X005036D01*
Y009329D01*D11*X008875Y0014D02*X0091D01*X008938Y001588D02*
X0089Y001525D01*Y001462D01*X008938Y0014D01*X0091Y0019D02*X0089D01*
X009035Y0017D02*X008972Y001718D01*X00893Y001745D01*X008908Y00178D01*
X0089Y001805D01*Y001825D01*Y00186D01*X00892Y0019D01*X009038Y0017D02*
X009052D01*X009062Y001702D01*X009075Y00171D01*X009085Y001728D01*
X0091Y001762D01*Y001818D01*X009078Y00187D01*X00905Y0019D01*
X0089Y002D02*X00905D01*X0091Y002038D01*Y002062D01*X00905Y0021D01*
X0091Y002138D01*Y002162D01*X00905Y0022D01*X0089D01*X00905Y0021D02*
X008938D01*X00895Y0023D02*Y0025D01*X00885Y0024D02*X00905D01*
X006694Y008306D02*X006994Y008406D01*X006694Y008506D01*
X006994Y008731D02*Y008669D01*X006969Y008606D02*X006994Y008631D01*
Y008769D01*X006969Y008794D01*X006919D01*X006894Y008769D01*Y008631D01*
X006869Y008606D01*X006819D01*X006794Y008631D01*Y008769D01*
X006819Y008794D01*X0068Y009D02*X006994D01*X006719D02*X006712D01*
X006931Y009394D02*X006994Y009331D01*Y009269D01*X006931Y009206D01*
X006844D01*X006794Y009269D01*Y009331D01*X006856Y009394D01*X007044D01*
X007106Y009331D01*Y009269D01*X007069Y009206D01*X0059Y00135D02*
X00585Y0014D01*X00615D01*Y00145D01*Y0014D02*Y00135D01*X0059Y0016D02*
X00585Y00165D01*Y00175D01*X0059Y0018D01*X00595D01*X006Y00175D01*
X0061Y0016D01*X00615D01*Y0018D01*X00595Y0019D02*X00615Y002D01*
X00595Y0021D01*X006Y0022D02*Y0024D01*X0059Y0023D02*X0061D01*D12*
X005029Y0126D02*X004943Y012714D01*X004857Y0126D01*X005371D02*
X005286Y012714D01*X0052Y0126D01*X005714D02*X005629Y012714D01*
X005543Y0126D01*X006057D02*X005971Y012714D01*X005886Y0126D01*
X006429Y012743D02*X0062D01*Y012571D01*Y0124D01*Y012571D02*X006371D01*
X006771Y012686D02*X006714Y012743D01*X0066D01*X006543Y012686D01*
Y012457D01*X0066Y0124D01*X006714D01*X006771Y012457D01*Y012686D01*
X006886Y0124D02*Y012743D01*X007057D01*X007114Y012686D01*Y012629D01*
X007057Y012571D01*X007114Y0124D01*X007057Y012571D02*X006886D01*
X007229Y012743D02*X007286Y0124D01*X007343Y012743D01*X0074Y0124D01*
X007457Y012743D01*X007571Y0124D02*X007686Y012743D01*X007757Y012529D01*
X0078Y0124D01*X007757Y012529D02*X007614D01*X007914Y0124D02*Y012743D01*
X008086D01*X008143Y012686D01*Y012629D01*X008086Y012571D01*
X008143Y0124D01*X008086Y012571D02*X007914D01*X008486Y012686D02*
X008429Y012743D01*X008257D01*Y0124D01*X008429D01*X008486Y012457D01*
Y012686D01*X0088Y0126D02*X008714Y012714D01*X008629Y0126D01*X009143D02*
X009057Y012714D01*X008971Y0126D01*X009486D02*X0094Y012714D01*
X009314Y0126D01*X009829D02*X009743Y012714D01*X009657Y0126D01*D11*
X011Y00675D02*X01095Y0067D01*Y0066D01*X011Y00655D01*X0112D01*
X01125Y0066D01*Y0067D01*X0112Y00675D01*X011D01*Y00705D02*X01095Y007D01*
Y0069D01*X011Y00685D01*X01105D01*X0111Y0069D01*Y007D01*X01115Y00705D01*
X0112D01*X01125Y007D01*Y0069D01*X0112Y00685D01*X011Y00735D02*
X01095Y0073D01*Y00715D01*X01125D01*Y0073D01*X0112Y00735D01*X011D01*D12*
X012114Y010986D02*Y010757D01*X012286D01*X012457D01*Y010986D01*
X012286Y010757D02*Y010929D01*X012171Y0111D02*X012114Y011157D01*
Y011271D01*X012171Y011329D01*X012229D01*X012286Y011271D01*
X0124Y0111D01*X012457D01*Y011329D01*D11*X007875Y0013D02*X0081D01*
X007938Y001488D02*X0079Y001425D01*Y001362D01*X007938Y0013D01*
X0081Y0018D02*X0079D01*X008035Y0016D02*X007972Y001618D01*
X00793Y001645D01*X007908Y00168D01*X0079Y001705D01*Y001725D01*Y00176D01*
X00792Y0018D01*X008038Y0016D02*X008052D01*X008062Y001602D01*
X008075Y00161D01*X008085Y001628D01*X0081Y001662D01*Y001718D01*
X008078Y00177D01*X00805Y0018D01*X0079Y0019D02*X00805D01*
X0081Y001938D01*Y001962D01*X00805Y002D01*X0081Y002038D01*Y002062D01*
X00805Y0021D01*X0079D01*X00805Y002D02*X007938D01*X00795Y0022D02*
Y0024D01*X00785Y0023D02*X00805D01*D10*X0133Y0028D02*Y002746D01*
X013279Y002693D02*X0133Y002714D01*Y002832D01*X013279Y002854D01*
X013236D01*X013214Y002832D01*Y002714D01*X013193Y002693D01*X01315D01*
X013129Y002714D01*Y002832D01*X01315Y002854D01*X013134Y00303D02*
X0133D01*X013064D02*X013059D01*X013246Y003368D02*X0133Y003314D01*
Y003261D01*X013246Y003207D01*X013171D01*X013129Y003261D01*Y003314D01*
X013182Y003368D01*X013343D01*X013396Y003314D01*Y003261D01*
X013364Y003207D01*X013107Y003464D02*X0133D01*X013182D02*
X013129Y003518D01*Y003571D01*X013182Y003625D01*X0133D01*Y003893D02*
X013129D01*X013244Y003721D02*X013191Y003736D01*X013154Y00376D01*
X013135Y00379D01*X013129Y003811D01*Y003829D01*Y003859D01*
X013146Y003893D01*X013246Y003721D02*X013259D01*X013268Y003724D01*
X013279Y00373D01*X013287Y003745D01*X0133Y003775D01*Y003822D01*
X013281Y003867D01*X013257Y003893D01*X0133Y004021D02*X013043D01*
Y004654D02*X0133D01*X013182D02*X013129Y0046D01*Y004546D01*
X013171Y004493D01*X013246D01*X0133Y004546D01*Y0046D01*
X013246Y004654D01*X013134Y00483D02*X0133D01*X013064D02*X013059D01*
X0133Y005114D02*Y005061D01*X013279Y005007D02*X0133Y005029D01*
Y005146D01*X013279Y005168D01*X013236D01*X013214Y005146D01*Y005029D01*
X013193Y005007D01*X01315D01*X013129Y005029D01*Y005146D01*
X01315Y005168D01*X013086Y005307D02*X013279D01*X0133Y005329D01*
Y005361D01*X013279Y005382D01*X013129Y005264D02*Y00535D01*
X013107Y005521D02*X0133D01*X013161Y005682D02*X013129Y005629D01*
Y005575D01*X013161Y005521D01*X013246Y005779D02*X013182D01*
X013129Y005832D01*Y005886D01*X013182Y005939D01*X013246D01*
X0133Y005886D01*Y005832D01*X013246Y005779D01*X013129Y006293D02*
X0133Y006379D01*X013129Y006464D01*X013086Y006593D02*X013043Y006636D01*
X0133D01*Y006679D01*Y006636D02*Y006593D01*Y006871D02*Y006893D01*
X013279D01*Y006871D01*X0133D01*X013086Y007236D02*X013043Y007193D01*
Y007107D01*X013086Y007064D01*X013257D01*X0133Y007107D01*Y007193D01*
X013257Y007236D01*X013086D01*X013129Y00715D02*X013214D01*D11*
X0026Y010125D02*Y0099D01*Y010038D02*X002662Y0101D01*X002725D01*
X002788Y010038D01*Y0099D01*X0029D02*X0031Y0102D01*X0034Y0099D02*
Y0101D01*X0032Y009965D02*X003218Y010028D01*X003245Y01007D01*
X00328Y010092D01*X003305Y0101D01*X003325D01*X00336D01*X0034Y01008D01*
X0032Y009962D02*Y009948D01*X003202Y009938D01*X00321Y009925D01*
X003228Y009915D01*X003262Y0099D01*X003318D01*X00337Y009922D01*
X0034Y00995D01*X008062Y0045D02*X007762Y0046D01*X00795Y004662D01*
X008062Y0047D01*X00795Y004662D02*Y004538D01*X008062Y004925D02*
Y004862D01*X008038Y0048D02*X008062Y004825D01*Y004962D01*
X008038Y004988D01*X007988D01*X007962Y004962D01*Y004825D01*
X007938Y0048D01*X007888D01*X007862Y004825D01*Y004962D01*
X007888Y004988D01*X007869Y005194D02*X008062D01*X007788D02*X007781D01*
X008Y005588D02*X008062Y005525D01*Y005462D01*X008Y0054D01*X007912D01*
X007862Y005462D01*Y005525D01*X007925Y005588D01*X008112D01*
X008175Y005525D01*Y005462D01*X008138Y0054D01*D12*X012129Y009057D02*
Y008829D01*X0123D01*X012471D01*Y009057D01*X0123Y008829D02*Y009D01*
X012186Y009229D02*X012129Y009286D01*X012471D01*Y009343D01*Y009286D02*
Y009229D01*X009029Y010957D02*Y010729D01*X0092D01*X009371D01*Y010957D01*
X0092Y010729D02*Y0109D01*X009086Y011071D02*X009029Y011129D01*
Y011243D01*X009086Y0113D01*X009143D01*X0092Y011243D01*
X009314Y011071D01*X009371D01*Y0113D01*D10*X004071Y002371D02*
X004029Y002414D01*X003943D01*X0039Y002371D01*Y0022D01*
X003943Y002157D01*X004029D01*X004071Y0022D01*Y002264D01*X004029D01*D11*
X0092Y0061D02*X00915Y00615D01*X00905D01*X009Y0061D01*Y0059D01*
X00905Y00585D01*X00915D01*X0092Y0059D01*Y005975D01*X00915D01*
X0026Y004125D02*Y0039D01*Y004038D02*X002662Y0041D01*X002725D01*
X002788Y004038D01*Y0039D01*X0029D02*X0031Y0042D01*X0034Y0039D02*
Y0041D01*X0032Y003965D02*X003218Y004028D01*X003245Y00407D01*
X00328Y004092D01*X003305Y0041D01*X003325D01*X00336D01*X0034Y00408D01*
X0032Y003962D02*Y003948D01*X003202Y003938D01*X00321Y003925D01*
X003228Y003915D01*X003262Y0039D01*X003318D01*X00337Y003922D01*
X0034Y00395D01*D12*X003271Y005043D02*Y005271D01*X0031D01*X002929D01*
Y005043D01*X0031Y005271D02*Y0051D01*X003214Y004929D02*
X003271Y004871D01*Y004757D01*X003214Y0047D01*X003157D01*
X0031Y004757D01*X003043Y0047D01*X002986D01*X002929Y004757D01*
Y004871D01*X002986Y004929D01*X0031Y004757D02*Y004814D01*D10*
X004886Y004629D02*X004843Y004586D01*Y0045D01*X004886Y004457D01*
X005057D01*X0051Y0045D01*Y004586D01*X005057Y004629D01*X004993D01*
Y004586D01*D11*X0068Y0017D02*Y0015D01*X00695D01*X0069Y00155D01*
Y00165D01*X00695Y0017D01*X00705D01*X0071Y00165D01*Y00155D01*
X00705Y0015D01*X0069Y0018D02*X0071Y0019D01*X0069Y002D01*X00695Y0021D02*
Y0023D01*X00685Y0022D02*X00705D01*D10*X0049Y007071D02*
X004857Y007114D01*X004771D01*X004729Y007071D01*Y0069D01*
X004771Y006857D01*X004857D01*X0049Y0069D01*Y006964D01*X004857D01*D12*
X0116Y010986D02*Y010757D01*X011771D01*X011943D01*Y010986D01*
X011771Y010757D02*Y010929D01*X011943Y011271D02*X0116D01*X0118Y0111D01*
Y011329D01*D11*X010655Y010155D02*Y00993D01*Y010068D02*X010718Y01013D01*
X01078D01*X010842Y010068D01*Y00993D01*X010955D02*X011155Y01023D01*
X011455Y00993D02*Y01013D01*X011255Y009995D02*X011272Y010058D01*
X0113Y0101D01*X011335Y010122D01*X01136Y01013D01*X01138D01*X011415D01*
X011455Y01011D01*X011255Y009992D02*Y009978D01*X011258Y009968D01*
X011265Y009955D01*X011282Y009945D01*X011318Y00993D01*X011372D01*
X011425Y009952D01*X011455Y00998D01*D10*X004843Y009107D02*
X0048Y00915D01*X004714D01*X004671Y009107D01*Y008936D01*
X004714Y008893D01*X0048D01*X004843Y008936D01*Y009D01*X0048D01*D11*
X0059Y00835D02*X00585Y0084D01*X00615D01*Y00845D01*Y0084D02*Y00835D01*
X0059Y0086D02*X00585Y00865D01*Y00875D01*X0059Y0088D01*X00595D01*
X006Y00875D01*X0061Y0086D01*X00615D01*Y0088D01*X00595Y0089D02*
X00615Y009D01*X00595Y0091D01*X006Y0092D02*Y0094D01*X0059Y0093D02*
X0061D01*X008012Y008338D02*X007712Y008438D01*X0079Y0085D01*
X008012Y008538D01*X0079Y0085D02*Y008375D01*X008012Y008762D02*Y0087D01*
X007988Y008638D02*X008012Y008662D01*Y0088D01*X007988Y008825D01*
X007938D01*X007912Y0088D01*Y008662D01*X007888Y008638D01*X007838D01*
X007812Y008662D01*Y0088D01*X007838Y008825D01*X007819Y009031D02*
X008012D01*X007738D02*X007731D01*X00795Y009425D02*X008012Y009362D01*
Y0093D01*X00795Y009238D01*X007862D01*X007812Y0093D01*Y009362D01*
X007875Y009425D01*X008062D01*X008125Y009362D01*Y0093D01*
X008088Y009238D01*X0085Y0071D02*X00855Y00715D01*Y00685D01*X0086D01*
X00855D02*X0085D01*X00875Y0071D02*X0088Y00715D01*X0089D01*
X00895Y0071D01*Y00705D01*X0089Y007D01*X00875Y0069D01*Y00685D01*
X00895D01*X00905Y00705D02*X00915Y00685D01*X00925Y00705D01*
X00935Y007D02*X00955D01*X00945Y0071D02*Y0069D01*X005775Y0045D02*
X006D01*X005838Y004688D02*X0058Y004625D01*Y004562D01*X005838Y0045D01*
X006Y005D02*X0058D01*X005935Y0048D02*X005872Y004818D01*
X00583Y004845D01*X005808Y00488D01*X0058Y004905D01*Y004925D01*Y00496D01*
X00582Y005D01*X005938Y0048D02*X005952D01*X005962Y004802D01*
X005975Y00481D01*X005985Y004828D01*X006Y004862D01*Y004918D01*
X005978Y00497D01*X00595Y005D01*X0058Y0051D02*X00595D01*X006Y005138D01*
Y005162D01*X00595Y0052D01*X006Y005238D01*Y005262D01*X00595Y0053D01*
X0058D01*X00595Y0052D02*X005838D01*X00585Y0054D02*Y0056D01*
X00575Y0055D02*X00595D01*X0049Y001D02*Y000688D01*Y000862D02*
X004962Y0008D01*X005025D01*X005088Y000862D01*Y000938D01*X005025Y001D01*
X004962D01*X0049Y00095D01*X0052Y000862D02*Y000938D01*X005262Y001D01*
X005325D01*X005388Y000938D01*Y000862D01*X005325Y0008D01*X005262D01*
X0052Y000862D01*X0055Y001D02*Y00085D01*X005538Y0008D01*X005562D01*
X0056Y00085D01*X005638Y0008D01*X005662D01*X0057Y00085D01*Y001D01*
X0056Y00085D02*Y000962D01*X0058Y000912D02*X005988D01*Y000938D01*
X005925Y001D01*X005862D01*X0058Y00095D01*Y000862D01*Y00085D01*
X00585Y0008D01*X00595D01*X005988Y000825D01*X0061Y001025D02*Y0008D01*
X006288Y000962D02*X006225Y001D01*X006162D01*X0061Y000962D01*
X006794Y000994D02*Y0008D01*Y001075D02*Y001081D01*X007Y001025D02*
Y0008D01*Y000938D02*X007062Y001D01*X007125D01*X007188Y000938D01*
Y0008D01*X0073Y001D02*Y000688D01*Y000862D02*X007362Y0008D01*X007425D01*
X007488Y000862D01*Y000938D01*X007425Y001D01*X007362D01*X0073Y00095D01*
X007788Y001D02*Y0008D01*Y00085D02*X007738Y0008D01*X00765D01*
X0076Y00085D01*Y001D01*X00795Y00105D02*Y000825D01*X007975Y0008D01*
X008012D01*X008038Y000825D01*X0079Y001D02*X008D01*D10*X009371Y0091D02*
X009329Y009143D01*X009243D01*X0092Y0091D01*Y008929D01*
X009243Y008886D01*X009329D01*X009371Y008929D01*Y008993D01*X009329D01*
D11*X0067Y0045D02*X007Y0046D01*X0067Y0047D01*X007Y004925D02*Y004862D01*
X006975Y0048D02*X007Y004825D01*Y004962D01*X006975Y004988D01*X006925D01*
X0069Y004962D01*Y004825D01*X006875Y0048D01*X006825D01*X0068Y004825D01*
Y004962D01*X006825Y004988D01*X006806Y005194D02*X007D01*X006725D02*
X006719D01*X006938Y005588D02*X007Y005525D01*Y005462D01*X006938Y0054D01*
X00685D01*X0068Y005462D01*Y005525D01*X006862Y005588D01*X00705D01*
X007112Y005525D01*Y005462D01*X007075Y0054D01*D12*X0034Y011114D02*
Y011343D01*X003229D01*X003057D01*Y011114D01*X003229Y011343D02*
Y011171D01*X003057Y010829D02*X0034D01*X0032Y011D01*Y010771D01*D10*
X010071Y0024D02*X010029Y002443D01*X009943D01*X0099Y0024D01*Y002229D01*
X009943Y002186D01*X010029D01*X010071Y002229D01*Y002293D01*X010029D01*
D12*X011629Y009057D02*Y008829D01*X0118D01*X011971D01*Y009057D01*
X0118Y008829D02*Y009D01*X011686Y009171D02*X011629Y009229D01*Y009343D01*
X011686Y0094D01*X011743D01*X0118Y009343D01*X011857Y0094D01*X011914D01*
X011971Y009343D01*Y009229D01*X011914Y009171D01*X0118Y009343D02*
Y009286D01*D11*X0049Y00815D02*X0047D01*Y008D01*X00475Y00805D01*
X00485D01*X0049Y008D01*Y0079D01*X00485Y00785D01*X00475D01*
X0047Y0079D01*X005Y00805D02*X0051Y00785D01*X0052Y00805D01*X0053Y008D02*
X0055D01*X0054Y0081D02*Y0079D01*D12*X010729Y005029D02*Y0048D01*
X0109D01*X011071D01*Y005029D01*X0109Y0048D02*Y004971D01*
X010786Y0052D02*X010729Y005257D01*X011071D01*Y005314D01*Y005257D02*
Y0052D01*D10*X005043Y002407D02*X005Y00245D01*X004914D01*
X004871Y002407D01*Y002236D01*X004914Y002193D01*X005D01*
X005043Y002236D01*Y0023D01*X005D01*D12*X012537Y002591D02*X012794D01*
X012609Y002806D02*X012566Y002734D01*Y002663D01*X012609Y002591D01*
X012723Y002934D02*X012637D01*X012566Y003006D01*Y003077D01*
X012637Y003149D01*X012723D01*X012794Y003077D01*Y003006D01*
X012723Y002934D01*X012509Y003334D02*X012766D01*X012794Y003363D01*
Y003406D01*X012766Y003434D01*X012566Y003277D02*Y003391D01*
X012723Y00362D02*X012637D01*X012566Y003691D01*Y003763D01*
X012637Y003834D01*X012723D01*X012794Y003763D01*Y003691D01*
X012723Y00362D01*X012537Y003963D02*X012794D01*X012609Y004177D02*
X012566Y004106D01*Y004034D01*X012609Y003963D01*X012723Y00452D02*
X012794Y004449D01*Y004377D01*X012723Y004306D01*X012623D01*
X012566Y004377D01*Y004449D01*X012637Y00452D01*X012851D01*
X012923Y004449D01*Y004377D01*X01288Y004306D01*X012794Y004877D02*
X012566D01*X01272Y004649D02*X012649Y004669D01*X0126Y0047D01*
X012574Y00474D01*X012566Y004769D01*Y004791D01*Y004831D01*
X012589Y004877D01*X012723Y004649D02*X01274D01*X012751Y004651D01*
X012766Y00466D01*X012777Y00468D01*X012794Y00472D01*Y004783D01*
X012769Y004843D01*X012737Y004877D01*X012537Y004991D02*X012794D01*
X012609Y005206D02*X012566Y005134D01*Y005063D01*X012609Y004991D01*
X012794Y005563D02*X012566D01*X01272Y005334D02*X012649Y005354D01*
X0126Y005386D01*X012574Y005426D01*X012566Y005454D01*Y005477D01*
Y005517D01*X012589Y005563D01*X012723Y005334D02*X01274D01*
X012751Y005337D01*X012766Y005346D01*X012777Y005366D01*
X012794Y005406D01*Y005469D01*X012769Y005529D01*X012737Y005563D01*
X012723Y005891D02*X012794Y00582D01*Y005749D01*X012723Y005677D01*
X012623D01*X012566Y005749D01*Y00582D01*X012637Y005891D01*X012851D01*
X012923Y00582D01*Y005749D01*X01288Y005677D01*X012666Y00602D02*
Y006234D01*X012637D01*X012566Y006163D01*Y006091D01*X012623Y00602D01*
X012723D01*X012737D01*X012794Y006077D01*Y006191D01*X012766Y006234D01*
X012794Y006449D02*Y006477D01*X012766D01*Y006449D01*X012794D01*
X012566Y006863D02*X012594D01*X012566Y00682D01*Y006806D01*
X01258Y006777D01*X012623Y006734D01*X012694Y006706D01*X012723D01*
X012766Y00672D01*X012794Y006777D01*Y006849D01*X012751Y00692D01*
X012723Y007049D02*X012637D01*X012566Y00712D01*Y007191D01*
X012637Y007263D01*X012723D01*X012794Y007191D01*Y00712D01*
X012723Y007049D01*X012794Y007499D02*X012637D01*X012566Y007552D01*
X012637Y007606D01*X012794D01*X012637Y007391D02*X012566Y007445D01*
X012637Y007498D01*X012537Y007391D02*X012794D01*D11*X0084Y008275D02*
X0085Y007975D01*X0086Y008275D01*X008825Y007975D02*X008762D01*
X0087Y008D02*X008725Y007975D01*X008862D01*X008888Y008D01*Y00805D01*
X008862Y008075D01*X008725D01*X0087Y0081D01*Y00815D01*X008725Y008175D01*
X008862D01*X008888Y00815D01*X009094Y008169D02*Y007975D01*Y00825D02*
Y008256D01*X009488Y008038D02*X009425Y007975D01*X009362D01*
X0093Y008038D01*Y008125D01*X009362Y008175D01*X009425D01*
X009488Y008112D01*Y007925D01*X009425Y007862D01*X009362D01*
X0093Y0079D01*
M02*