%FSTAX24Y24*%
%MOIN*%
%IN LAYER2.GBR *%
%ADD10C,0.0390*%
%ADD11C,0.0400*%
%ADD12C,0.0500*%
%ADD13C,0.0750*%
%ADD14C,0.1575*%
D13*X008Y01D03*X004Y009D03*X005Y003D03*X008D03*X01Y011D03*Y007D03*D12*
X0113Y0043D03*D14*X013Y001D03*X001D03*D13*X006Y003D03*X01Y009D03*
X005Y004D03*D12*X008Y0049D03*D13*X013Y011D03*X011D03*X01Y01D03*
X007Y004D03*X01Y006D03*D12*X0107Y0012D03*D13*X004Y01D03*Y005D03*
X006Y01D03*X004Y004D03*Y008D03*D12*X007Y0049D03*D13*X011Y009D03*
X01Y008D03*X004Y007D03*X013Y009D03*X01Y005D03*X009Y003D03*D14*
X013Y013D03*X001D03*D13*X005Y01D03*X004Y003D03*X01Y004D03*Y003D03*
X007Y01D03*X006Y004D03*X007Y003D03*X004Y011D03*X008Y004D03*D11*
X005Y009D02*G01X004D01*X005Y007D02*X004D01*X008Y01D02*Y005D01*
X007Y01D02*Y005D01*X004D02*X003Y006D01*Y011D01*X004Y012D01*X011D01*
X012Y011D01*Y01D01*X011Y009D01*X001Y013D02*X013D01*X01Y003D02*
X013Y001D01*X005Y0032D02*Y0097D01*X0038Y0028D02*X0016Y0013D01*
X0098Y009D02*X0091D01*Y0102D01*X0082Y011D01*X005D01*Y0103D01*
X0091Y009D02*X009Y0039D01*X0099Y0032D01*X004Y003D02*X0049D01*X0084D02*
X0088D01*X0113Y0044D02*Y007D01*X0103D01*D10*X006Y0028D02*Y0012D01*
X0105D01*X0091Y006D02*X0097D01*
M02*