  0
SECTION
  2
ENTITIES
  0
LINE
  8
HOLE_LOC
 10
0.4750
 20
0.3000
 30
0.0
 11
0.5250
 21
0.3000
 31
0.0
  0
LINE
  8
HOLE_LOC
 10
0.5000
 20
0.2750
 30
0.0
 11
0.5000
 21
0.3250
 31
0.0
  0
LINE
  8
HOLE_LOC
 10
0.4750
 20
1.0000
 30
0.0
 11
0.5250
 21
1.0000
 31
0.0
  0
LINE
  8
HOLE_LOC
 10
0.5000
 20
0.9750
 30
0.0
 11
0.5000
 21
1.0250
 31
0.0
  0
LINE
  8
HOLE_LOC
 10
0.3750
 20
0.3000
 30
0.0
 11
0.4250
 21
0.3000
 31
0.0
  0
LINE
  8
HOLE_LOC
 10
0.4000
 20
0.2750
 30
0.0
 11
0.4000
 21
0.3250
 31
0.0
  0
LINE
  8
HOLE_LOC
 10
0.3750
 20
0.7000
 30
0.0
 11
0.4250
 21
0.7000
 31
0.0
  0
LINE
  8
HOLE_LOC
 10
0.4000
 20
0.6750
 30
0.0
 11
0.4000
 21
0.7250
 31
0.0
  0
LINE
  8
HOLE_LOC
 10
1.0350
 20
0.1200
 30
0.0
 11
1.0850
 21
0.1200
 31
0.0
  0
LINE
  8
HOLE_LOC
 10
1.0600
 20
0.0950
 30
0.0
 11
1.0600
 21
0.1450
 31
0.0
  0
TEXT
  8
HOLE_LOC
 10
1.0800
 20
0.1400
 30
0.0
 40
0.0400
  1
A
  0
LINE
  8
HOLE_LOC
 10
0.3750
 20
0.5000
 30
0.0
 11
0.4250
 21
0.5000
 31
0.0
  0
LINE
  8
HOLE_LOC
 10
0.4000
 20
0.4750
 30
0.0
 11
0.4000
 21
0.5250
 31
0.0
  0
LINE
  8
HOLE_LOC
 10
0.3750
 20
0.4000
 30
0.0
 11
0.4250
 21
0.4000
 31
0.0
  0
LINE
  8
HOLE_LOC
 10
0.4000
 20
0.3750
 30
0.0
 11
0.4000
 21
0.4250
 31
0.0
  0
LINE
  8
HOLE_LOC
 10
0.3750
 20
0.8000
 30
0.0
 11
0.4250
 21
0.8000
 31
0.0
  0
LINE
  8
HOLE_LOC
 10
0.4000
 20
0.7750
 30
0.0
 11
0.4000
 21
0.8250
 31
0.0
  0
LINE
  8
HOLE_LOC
 10
0.6750
 20
0.5000
 30
0.0
 11
0.7250
 21
0.5000
 31
0.0
  0
LINE
  8
HOLE_LOC
 10
0.7000
 20
0.4750
 30
0.0
 11
0.7000
 21
0.5250
 31
0.0
  0
TEXT
  8
HOLE_LOC
 10
0.7200
 20
0.5200
 30
0.0
 40
0.0400
  1
A
  0
LINE
  8
HOLE_LOC
 10
1.0750
 20
0.9000
 30
0.0
 11
1.1250
 21
0.9000
 31
0.0
  0
LINE
  8
HOLE_LOC
 10
1.1000
 20
0.8750
 30
0.0
 11
1.1000
 21
0.9250
 31
0.0
  0
LINE
  8
HOLE_LOC
 10
0.9750
 20
0.6000
 30
0.0
 11
1.0250
 21
0.6000
 31
0.0
  0
LINE
  8
HOLE_LOC
 10
1.0000
 20
0.5750
 30
0.0
 11
1.0000
 21
0.6250
 31
0.0
  0
LINE
  8
HOLE_LOC
 10
0.7750
 20
1.0000
 30
0.0
 11
0.8250
 21
1.0000
 31
0.0
  0
LINE
  8
HOLE_LOC
 10
0.8000
 20
0.9750
 30
0.0
 11
0.8000
 21
1.0250
 31
0.0
  0
LINE
  8
HOLE_LOC
 10
0.3750
 20
0.9000
 30
0.0
 11
0.4250
 21
0.9000
 31
0.0
  0
LINE
  8
HOLE_LOC
 10
0.4000
 20
0.8750
 30
0.0
 11
0.4000
 21
0.9250
 31
0.0
  0
LINE
  8
HOLE_LOC
 10
0.9750
 20
0.3000
 30
0.0
 11
1.0250
 21
0.3000
 31
0.0
  0
LINE
  8
HOLE_LOC
 10
1.0000
 20
0.2750
 30
0.0
 11
1.0000
 21
0.3250
 31
0.0
  0
LINE
  8
HOLE_LOC
 10
0.6750
 20
0.3000
 30
0.0
 11
0.7250
 21
0.3000
 31
0.0
  0
LINE
  8
HOLE_LOC
 10
0.7000
 20
0.2750
 30
0.0
 11
0.7000
 21
0.3250
 31
0.0
  0
LINE
  8
HOLE_LOC
 10
1.2750
 20
1.3000
 30
0.0
 11
1.3250
 21
1.3000
 31
0.0
  0
LINE
  8
HOLE_LOC
 10
1.3000
 20
1.2750
 30
0.0
 11
1.3000
 21
1.3250
 31
0.0
  0
TEXT
  8
HOLE_LOC
 10
1.3200
 20
1.3200
 30
0.0
 40
0.0400
  1
B
  0
LINE
  8
HOLE_LOC
 10
0.3750
 20
1.1000
 30
0.0
 11
0.4250
 21
1.1000
 31
0.0
  0
LINE
  8
HOLE_LOC
 10
0.4000
 20
1.0750
 30
0.0
 11
0.4000
 21
1.1250
 31
0.0
  0
LINE
  8
HOLE_LOC
 10
0.6750
 20
1.0000
 30
0.0
 11
0.7250
 21
1.0000
 31
0.0
  0
LINE
  8
HOLE_LOC
 10
0.7000
 20
0.9750
 30
0.0
 11
0.7000
 21
1.0250
 31
0.0
  0
LINE
  8
HOLE_LOC
 10
0.9750
 20
0.5000
 30
0.0
 11
1.0250
 21
0.5000
 31
0.0
  0
LINE
  8
HOLE_LOC
 10
1.0000
 20
0.4750
 30
0.0
 11
1.0000
 21
0.5250
 31
0.0
  0
LINE
  8
HOLE_LOC
 10
0.9750
 20
0.4000
 30
0.0
 11
1.0250
 21
0.4000
 31
0.0
  0
LINE
  8
HOLE_LOC
 10
1.0000
 20
0.3750
 30
0.0
 11
1.0000
 21
0.4250
 31
0.0
  0
LINE
  8
HOLE_LOC
 10
1.2750
 20
0.9000
 30
0.0
 11
1.3250
 21
0.9000
 31
0.0
  0
LINE
  8
HOLE_LOC
 10
1.3000
 20
0.8750
 30
0.0
 11
1.3000
 21
0.9250
 31
0.0
  0
LINE
  8
HOLE_LOC
 10
0.0750
 20
1.3000
 30
0.0
 11
0.1250
 21
1.3000
 31
0.0
  0
LINE
  8
HOLE_LOC
 10
0.1000
 20
1.2750
 30
0.0
 11
0.1000
 21
1.3250
 31
0.0
  0
TEXT
  8
HOLE_LOC
 10
0.1200
 20
1.3200
 30
0.0
 40
0.0400
  1
B
  0
LINE
  8
HOLE_LOC
 10
0.6750
 20
0.4000
 30
0.0
 11
0.7250
 21
0.4000
 31
0.0
  0
LINE
  8
HOLE_LOC
 10
0.7000
 20
0.3750
 30
0.0
 11
0.7000
 21
0.4250
 31
0.0
  0
LINE
  8
HOLE_LOC
 10
0.3750
 20
1.0000
 30
0.0
 11
0.4250
 21
1.0000
 31
0.0
  0
LINE
  8
HOLE_LOC
 10
0.4000
 20
0.9750
 30
0.0
 11
0.4000
 21
1.0250
 31
0.0
  0
LINE
  8
HOLE_LOC
 10
0.9750
 20
0.8000
 30
0.0
 11
1.0250
 21
0.8000
 31
0.0
  0
LINE
  8
HOLE_LOC
 10
1.0000
 20
0.7750
 30
0.0
 11
1.0000
 21
0.8250
 31
0.0
  0
LINE
  8
HOLE_LOC
 10
0.5750
 20
1.0000
 30
0.0
 11
0.6250
 21
1.0000
 31
0.0
  0
LINE
  8
HOLE_LOC
 10
0.6000
 20
0.9750
 30
0.0
 11
0.6000
 21
1.0250
 31
0.0
  0
LINE
  8
HOLE_LOC
 10
0.7750
 20
0.4000
 30
0.0
 11
0.8250
 21
0.4000
 31
0.0
  0
LINE
  8
HOLE_LOC
 10
0.8000
 20
0.3750
 30
0.0
 11
0.8000
 21
0.4250
 31
0.0
  0
LINE
  8
HOLE_LOC
 10
0.5750
 20
0.4000
 30
0.0
 11
0.6250
 21
0.4000
 31
0.0
  0
LINE
  8
HOLE_LOC
 10
0.6000
 20
0.3750
 30
0.0
 11
0.6000
 21
0.4250
 31
0.0
  0
LINE
  8
HOLE_LOC
 10
0.7750
 20
0.5000
 30
0.0
 11
0.8250
 21
0.5000
 31
0.0
  0
LINE
  8
HOLE_LOC
 10
0.8000
 20
0.4750
 30
0.0
 11
0.8000
 21
0.5250
 31
0.0
  0
TEXT
  8
HOLE_LOC
 10
0.8200
 20
0.5200
 30
0.0
 40
0.0400
  1
A
  0
LINE
  8
HOLE_LOC
 10
0.8750
 20
0.3000
 30
0.0
 11
0.9250
 21
0.3000
 31
0.0
  0
LINE
  8
HOLE_LOC
 10
0.9000
 20
0.2750
 30
0.0
 11
0.9000
 21
0.3250
 31
0.0
  0
LINE
  8
HOLE_LOC
 10
1.2750
 20
1.1000
 30
0.0
 11
1.3250
 21
1.1000
 31
0.0
  0
LINE
  8
HOLE_LOC
 10
1.3000
 20
1.0750
 30
0.0
 11
1.3000
 21
1.1250
 31
0.0
  0
LINE
  8
HOLE_LOC
 10
0.7750
 20
0.3000
 30
0.0
 11
0.8250
 21
0.3000
 31
0.0
  0
LINE
  8
HOLE_LOC
 10
0.8000
 20
0.2750
 30
0.0
 11
0.8000
 21
0.3250
 31
0.0
  0
LINE
  8
HOLE_LOC
 10
0.9750
 20
0.7000
 30
0.0
 11
1.0250
 21
0.7000
 31
0.0
  0
LINE
  8
HOLE_LOC
 10
1.0000
 20
0.6750
 30
0.0
 11
1.0000
 21
0.7250
 31
0.0
  0
LINE
  8
HOLE_LOC
 10
0.4750
 20
0.4000
 30
0.0
 11
0.5250
 21
0.4000
 31
0.0
  0
LINE
  8
HOLE_LOC
 10
0.5000
 20
0.3750
 30
0.0
 11
0.5000
 21
0.4250
 31
0.0
  0
LINE
  8
HOLE_LOC
 10
0.9750
 20
1.1000
 30
0.0
 11
1.0250
 21
1.1000
 31
0.0
  0
LINE
  8
HOLE_LOC
 10
1.0000
 20
1.0750
 30
0.0
 11
1.0000
 21
1.1250
 31
0.0
  0
LINE
  8
HOLE_LOC
 10
1.1050
 20
0.4300
 30
0.0
 11
1.1550
 21
0.4300
 31
0.0
  0
LINE
  8
HOLE_LOC
 10
1.1300
 20
0.4050
 30
0.0
 11
1.1300
 21
0.4550
 31
0.0
  0
TEXT
  8
HOLE_LOC
 10
1.1500
 20
0.4500
 30
0.0
 40
0.0400
  1
A
  0
LINE
  8
HOLE_LOC
 10
0.9750
 20
1.0000
 30
0.0
 11
1.0250
 21
1.0000
 31
0.0
  0
LINE
  8
HOLE_LOC
 10
1.0000
 20
0.9750
 30
0.0
 11
1.0000
 21
1.0250
 31
0.0
  0
LINE
  8
HOLE_LOC
 10
0.9750
 20
0.9000
 30
0.0
 11
1.0250
 21
0.9000
 31
0.0
  0
LINE
  8
HOLE_LOC
 10
1.0000
 20
0.8750
 30
0.0
 11
1.0000
 21
0.9250
 31
0.0
  0
LINE
  8
HOLE_LOC
 10
0.0750
 20
0.1000
 30
0.0
 11
0.1250
 21
0.1000
 31
0.0
  0
LINE
  8
HOLE_LOC
 10
0.1000
 20
0.0750
 30
0.0
 11
0.1000
 21
0.1250
 31
0.0
  0
TEXT
  8
HOLE_LOC
 10
0.1200
 20
0.1200
 30
0.0
 40
0.0400
  1
B
  0
LINE
  8
HOLE_LOC
 10
1.2750
 20
0.1000
 30
0.0
 11
1.3250
 21
0.1000
 31
0.0
  0
LINE
  8
HOLE_LOC
 10
1.3000
 20
0.0750
 30
0.0
 11
1.3000
 21
0.1250
 31
0.0
  0
TEXT
  8
HOLE_LOC
 10
1.3200
 20
0.1200
 30
0.0
 40
0.0400
  1
B
  0
LINE
  8
HOLE_LOC
 10
1.0750
 20
1.1000
 30
0.0
 11
1.1250
 21
1.1000
 31
0.0
  0
LINE
  8
HOLE_LOC
 10
1.1000
 20
1.0750
 30
0.0
 11
1.1000
 21
1.1250
 31
0.0
  0
LINE
  8
HOLE_LOC
 10
0.5750
 20
0.3000
 30
0.0
 11
0.6250
 21
0.3000
 31
0.0
  0
LINE
  8
HOLE_LOC
 10
0.6000
 20
0.2750
 30
0.0
 11
0.6000
 21
0.3250
 31
0.0
  0
ENDSEC
  0
EOF
