  0
SECTION
  2
ENTITIES
  0
CIRCLE
  8
PADS2
 10
0.5000
 20
0.3000
 30
0.0
 40
0.0375
  0
CIRCLE
  8
PADS2
 10
0.5000
 20
1.0000
 30
0.0
 40
0.0375
  0
CIRCLE
  8
PADS2
 10
0.4000
 20
0.3000
 30
0.0
 40
0.0375
  0
CIRCLE
  8
PADS2
 10
0.4000
 20
0.7000
 30
0.0
 40
0.0375
  0
CIRCLE
  8
PADS2
 10
0.4000
 20
0.5000
 30
0.0
 40
0.0375
  0
CIRCLE
  8
PADS2
 10
0.4000
 20
0.4000
 30
0.0
 40
0.0375
  0
CIRCLE
  8
PADS2
 10
0.4000
 20
0.8000
 30
0.0
 40
0.0375
  0
CIRCLE
  8
PADS2
 10
1.1000
 20
0.9000
 30
0.0
 40
0.0375
  0
CIRCLE
  8
PADS2
 10
1.0000
 20
0.6000
 30
0.0
 40
0.0375
  0
CIRCLE
  8
PADS2
 10
0.8000
 20
1.0000
 30
0.0
 40
0.0375
  0
CIRCLE
  8
PADS2
 10
0.4000
 20
0.9000
 30
0.0
 40
0.0375
  0
CIRCLE
  8
PADS2
 10
1.0000
 20
0.3000
 30
0.0
 40
0.0375
  0
CIRCLE
  8
PADS2
 10
0.7000
 20
0.3000
 30
0.0
 40
0.0375
  0
CIRCLE
  8
PADS2
 10
1.3000
 20
1.3000
 30
0.0
 40
0.0787
  0
CIRCLE
  8
PADS2
 10
0.4000
 20
1.1000
 30
0.0
 40
0.0375
  0
CIRCLE
  8
PADS2
 10
0.7000
 20
1.0000
 30
0.0
 40
0.0375
  0
CIRCLE
  8
PADS2
 10
1.0000
 20
0.5000
 30
0.0
 40
0.0375
  0
CIRCLE
  8
PADS2
 10
1.0000
 20
0.4000
 30
0.0
 40
0.0375
  0
CIRCLE
  8
PADS2
 10
1.3000
 20
0.9000
 30
0.0
 40
0.0375
  0
CIRCLE
  8
PADS2
 10
0.1000
 20
1.3000
 30
0.0
 40
0.0787
  0
CIRCLE
  8
PADS2
 10
0.7000
 20
0.4000
 30
0.0
 40
0.0375
  0
CIRCLE
  8
PADS2
 10
0.4000
 20
1.0000
 30
0.0
 40
0.0375
  0
CIRCLE
  8
PADS2
 10
1.0000
 20
0.8000
 30
0.0
 40
0.0375
  0
CIRCLE
  8
PADS2
 10
0.6000
 20
1.0000
 30
0.0
 40
0.0375
  0
CIRCLE
  8
PADS2
 10
0.8000
 20
0.4000
 30
0.0
 40
0.0375
  0
CIRCLE
  8
PADS2
 10
0.6000
 20
0.4000
 30
0.0
 40
0.0375
  0
CIRCLE
  8
PADS2
 10
0.9000
 20
0.3000
 30
0.0
 40
0.0375
  0
CIRCLE
  8
PADS2
 10
1.3000
 20
1.1000
 30
0.0
 40
0.0375
  0
CIRCLE
  8
PADS2
 10
0.8000
 20
0.3000
 30
0.0
 40
0.0375
  0
CIRCLE
  8
PADS2
 10
1.0000
 20
0.7000
 30
0.0
 40
0.0375
  0
CIRCLE
  8
PADS2
 10
0.5000
 20
0.4000
 30
0.0
 40
0.0375
  0
CIRCLE
  8
PADS2
 10
1.0000
 20
1.1000
 30
0.0
 40
0.0375
  0
CIRCLE
  8
PADS2
 10
1.0000
 20
1.0000
 30
0.0
 40
0.0375
  0
CIRCLE
  8
PADS2
 10
1.0000
 20
0.9000
 30
0.0
 40
0.0375
  0
CIRCLE
  8
PADS2
 10
0.1000
 20
0.1000
 30
0.0
 40
0.0787
  0
CIRCLE
  8
PADS2
 10
1.3000
 20
0.1000
 30
0.0
 40
0.0787
  0
CIRCLE
  8
PADS2
 10
1.1000
 20
1.1000
 30
0.0
 40
0.0375
  0
CIRCLE
  8
PADS2
 10
0.6000
 20
0.3000
 30
0.0
 40
0.0375
  0
ENDSEC
  0
EOF
