  0
SECTION
  2
ENTITIES
  0
LINE
  8
SILK1
 10
0.7875
 20
0.1300
 30
0.0
 11
0.8100
 21
0.1300
 31
0.0
  0
LINE
  8
SILK1
 10
0.7937
 20
0.1487
 30
0.0
 11
0.7900
 21
0.1425
 31
0.0
  0
LINE
  8
SILK1
 10
0.7900
 20
0.1425
 30
0.0
 11
0.7900
 21
0.1363
 31
0.0
  0
LINE
  8
SILK1
 10
0.7900
 20
0.1363
 30
0.0
 11
0.7937
 21
0.1300
 31
0.0
  0
LINE
  8
SILK1
 10
0.8100
 20
0.1800
 30
0.0
 11
0.7900
 21
0.1800
 31
0.0
  0
LINE
  8
SILK1
 10
0.8035
 20
0.1600
 30
0.0
 11
0.7973
 21
0.1618
 31
0.0
  0
LINE
  8
SILK1
 10
0.7973
 20
0.1618
 30
0.0
 11
0.7930
 21
0.1645
 31
0.0
  0
LINE
  8
SILK1
 10
0.7930
 20
0.1645
 30
0.0
 11
0.7907
 21
0.1680
 31
0.0
  0
LINE
  8
SILK1
 10
0.7907
 20
0.1680
 30
0.0
 11
0.7900
 21
0.1705
 31
0.0
  0
LINE
  8
SILK1
 10
0.7900
 20
0.1705
 30
0.0
 11
0.7900
 21
0.1725
 31
0.0
  0
LINE
  8
SILK1
 10
0.7900
 20
0.1725
 30
0.0
 11
0.7900
 21
0.1760
 31
0.0
  0
LINE
  8
SILK1
 10
0.7900
 20
0.1760
 30
0.0
 11
0.7920
 21
0.1800
 31
0.0
  0
LINE
  8
SILK1
 10
0.8037
 20
0.1600
 30
0.0
 11
0.8053
 21
0.1600
 31
0.0
  0
LINE
  8
SILK1
 10
0.8053
 20
0.1600
 30
0.0
 11
0.8063
 21
0.1603
 31
0.0
  0
LINE
  8
SILK1
 10
0.8063
 20
0.1603
 30
0.0
 11
0.8075
 21
0.1610
 31
0.0
  0
LINE
  8
SILK1
 10
0.8075
 20
0.1610
 30
0.0
 11
0.8085
 21
0.1628
 31
0.0
  0
LINE
  8
SILK1
 10
0.8085
 20
0.1628
 30
0.0
 11
0.8100
 21
0.1663
 31
0.0
  0
LINE
  8
SILK1
 10
0.8100
 20
0.1663
 30
0.0
 11
0.8100
 21
0.1718
 31
0.0
  0
LINE
  8
SILK1
 10
0.8100
 20
0.1718
 30
0.0
 11
0.8077
 21
0.1770
 31
0.0
  0
LINE
  8
SILK1
 10
0.8077
 20
0.1770
 30
0.0
 11
0.8050
 21
0.1800
 31
0.0
  0
LINE
  8
SILK1
 10
0.7900
 20
0.1900
 30
0.0
 11
0.8050
 21
0.1900
 31
0.0
  0
LINE
  8
SILK1
 10
0.8050
 20
0.1900
 30
0.0
 11
0.8100
 21
0.1938
 31
0.0
  0
LINE
  8
SILK1
 10
0.8100
 20
0.1938
 30
0.0
 11
0.8100
 21
0.1963
 31
0.0
  0
LINE
  8
SILK1
 10
0.8100
 20
0.1963
 30
0.0
 11
0.8050
 21
0.2000
 31
0.0
  0
LINE
  8
SILK1
 10
0.8050
 20
0.2000
 30
0.0
 11
0.8100
 21
0.2037
 31
0.0
  0
LINE
  8
SILK1
 10
0.8100
 20
0.2037
 30
0.0
 11
0.8100
 21
0.2062
 31
0.0
  0
LINE
  8
SILK1
 10
0.8100
 20
0.2062
 30
0.0
 11
0.8050
 21
0.2100
 31
0.0
  0
LINE
  8
SILK1
 10
0.8050
 20
0.2100
 30
0.0
 11
0.7900
 21
0.2100
 31
0.0
  0
LINE
  8
SILK1
 10
0.8050
 20
0.2000
 30
0.0
 11
0.7937
 21
0.2000
 31
0.0
  0
LINE
  8
SILK1
 10
0.7950
 20
0.2200
 30
0.0
 11
0.7950
 21
0.2400
 31
0.0
  0
LINE
  8
SILK1
 10
0.7850
 20
0.2300
 30
0.0
 11
0.8050
 21
0.2300
 31
0.0
  0
LINE
  8
SILK1
 10
0.4929
 20
0.9371
 30
0.0
 11
0.4886
 21
0.9329
 31
0.0
  0
LINE
  8
SILK1
 10
0.4886
 20
0.9329
 30
0.0
 11
0.4886
 21
0.9243
 31
0.0
  0
LINE
  8
SILK1
 10
0.4886
 20
0.9243
 30
0.0
 11
0.4929
 21
0.9200
 31
0.0
  0
LINE
  8
SILK1
 10
0.4929
 20
0.9200
 30
0.0
 11
0.5100
 21
0.9200
 31
0.0
  0
LINE
  8
SILK1
 10
0.5100
 20
0.9200
 30
0.0
 11
0.5143
 21
0.9243
 31
0.0
  0
LINE
  8
SILK1
 10
0.5143
 20
0.9243
 30
0.0
 11
0.5143
 21
0.9329
 31
0.0
  0
LINE
  8
SILK1
 10
0.5143
 20
0.9329
 30
0.0
 11
0.5100
 21
0.9371
 31
0.0
  0
LINE
  8
SILK1
 10
0.5100
 20
0.9371
 30
0.0
 11
0.5036
 21
0.9371
 31
0.0
  0
LINE
  8
SILK1
 10
0.5036
 20
0.9371
 30
0.0
 11
0.5036
 21
0.9329
 31
0.0
  0
LINE
  8
SILK1
 10
0.8875
 20
0.1400
 30
0.0
 11
0.9100
 21
0.1400
 31
0.0
  0
LINE
  8
SILK1
 10
0.8938
 20
0.1588
 30
0.0
 11
0.8900
 21
0.1525
 31
0.0
  0
LINE
  8
SILK1
 10
0.8900
 20
0.1525
 30
0.0
 11
0.8900
 21
0.1462
 31
0.0
  0
LINE
  8
SILK1
 10
0.8900
 20
0.1462
 30
0.0
 11
0.8938
 21
0.1400
 31
0.0
  0
LINE
  8
SILK1
 10
0.9100
 20
0.1900
 30
0.0
 11
0.8900
 21
0.1900
 31
0.0
  0
LINE
  8
SILK1
 10
0.9035
 20
0.1700
 30
0.0
 11
0.8972
 21
0.1718
 31
0.0
  0
LINE
  8
SILK1
 10
0.8972
 20
0.1718
 30
0.0
 11
0.8930
 21
0.1745
 31
0.0
  0
LINE
  8
SILK1
 10
0.8930
 20
0.1745
 30
0.0
 11
0.8908
 21
0.1780
 31
0.0
  0
LINE
  8
SILK1
 10
0.8908
 20
0.1780
 30
0.0
 11
0.8900
 21
0.1805
 31
0.0
  0
LINE
  8
SILK1
 10
0.8900
 20
0.1805
 30
0.0
 11
0.8900
 21
0.1825
 31
0.0
  0
LINE
  8
SILK1
 10
0.8900
 20
0.1825
 30
0.0
 11
0.8900
 21
0.1860
 31
0.0
  0
LINE
  8
SILK1
 10
0.8900
 20
0.1860
 30
0.0
 11
0.8920
 21
0.1900
 31
0.0
  0
LINE
  8
SILK1
 10
0.9038
 20
0.1700
 30
0.0
 11
0.9052
 21
0.1700
 31
0.0
  0
LINE
  8
SILK1
 10
0.9052
 20
0.1700
 30
0.0
 11
0.9062
 21
0.1703
 31
0.0
  0
LINE
  8
SILK1
 10
0.9062
 20
0.1703
 30
0.0
 11
0.9075
 21
0.1710
 31
0.0
  0
LINE
  8
SILK1
 10
0.9075
 20
0.1710
 30
0.0
 11
0.9085
 21
0.1727
 31
0.0
  0
LINE
  8
SILK1
 10
0.9085
 20
0.1727
 30
0.0
 11
0.9100
 21
0.1762
 31
0.0
  0
LINE
  8
SILK1
 10
0.9100
 20
0.1762
 30
0.0
 11
0.9100
 21
0.1817
 31
0.0
  0
LINE
  8
SILK1
 10
0.9100
 20
0.1817
 30
0.0
 11
0.9077
 21
0.1870
 31
0.0
  0
LINE
  8
SILK1
 10
0.9077
 20
0.1870
 30
0.0
 11
0.9050
 21
0.1900
 31
0.0
  0
LINE
  8
SILK1
 10
0.8900
 20
0.2000
 30
0.0
 11
0.9050
 21
0.2000
 31
0.0
  0
LINE
  8
SILK1
 10
0.9050
 20
0.2000
 30
0.0
 11
0.9100
 21
0.2037
 31
0.0
  0
LINE
  8
SILK1
 10
0.9100
 20
0.2037
 30
0.0
 11
0.9100
 21
0.2062
 31
0.0
  0
LINE
  8
SILK1
 10
0.9100
 20
0.2062
 30
0.0
 11
0.9050
 21
0.2100
 31
0.0
  0
LINE
  8
SILK1
 10
0.9050
 20
0.2100
 30
0.0
 11
0.9100
 21
0.2137
 31
0.0
  0
LINE
  8
SILK1
 10
0.9100
 20
0.2137
 30
0.0
 11
0.9100
 21
0.2162
 31
0.0
  0
LINE
  8
SILK1
 10
0.9100
 20
0.2162
 30
0.0
 11
0.9050
 21
0.2200
 31
0.0
  0
LINE
  8
SILK1
 10
0.9050
 20
0.2200
 30
0.0
 11
0.8900
 21
0.2200
 31
0.0
  0
LINE
  8
SILK1
 10
0.9050
 20
0.2100
 30
0.0
 11
0.8938
 21
0.2100
 31
0.0
  0
LINE
  8
SILK1
 10
0.8950
 20
0.2300
 30
0.0
 11
0.8950
 21
0.2500
 31
0.0
  0
LINE
  8
SILK1
 10
0.8850
 20
0.2400
 30
0.0
 11
0.9050
 21
0.2400
 31
0.0
  0
LINE
  8
SILK1
 10
0.5900
 20
0.1350
 30
0.0
 11
0.5850
 21
0.1400
 31
0.0
  0
LINE
  8
SILK1
 10
0.5850
 20
0.1400
 30
0.0
 11
0.6150
 21
0.1400
 31
0.0
  0
LINE
  8
SILK1
 10
0.6150
 20
0.1400
 30
0.0
 11
0.6150
 21
0.1450
 31
0.0
  0
LINE
  8
SILK1
 10
0.6150
 20
0.1400
 30
0.0
 11
0.6150
 21
0.1350
 31
0.0
  0
LINE
  8
SILK1
 10
0.5900
 20
0.1600
 30
0.0
 11
0.5850
 21
0.1650
 31
0.0
  0
LINE
  8
SILK1
 10
0.5850
 20
0.1650
 30
0.0
 11
0.5850
 21
0.1750
 31
0.0
  0
LINE
  8
SILK1
 10
0.5850
 20
0.1750
 30
0.0
 11
0.5900
 21
0.1800
 31
0.0
  0
LINE
  8
SILK1
 10
0.5900
 20
0.1800
 30
0.0
 11
0.5950
 21
0.1800
 31
0.0
  0
LINE
  8
SILK1
 10
0.5950
 20
0.1800
 30
0.0
 11
0.6000
 21
0.1750
 31
0.0
  0
LINE
  8
SILK1
 10
0.6000
 20
0.1750
 30
0.0
 11
0.6100
 21
0.1600
 31
0.0
  0
LINE
  8
SILK1
 10
0.6100
 20
0.1600
 30
0.0
 11
0.6150
 21
0.1600
 31
0.0
  0
LINE
  8
SILK1
 10
0.6150
 20
0.1600
 30
0.0
 11
0.6150
 21
0.1800
 31
0.0
  0
LINE
  8
SILK1
 10
0.5950
 20
0.1900
 30
0.0
 11
0.6150
 21
0.2000
 31
0.0
  0
LINE
  8
SILK1
 10
0.5950
 20
0.2100
 30
0.0
 11
0.6150
 21
0.2000
 31
0.0
  0
LINE
  8
SILK1
 10
0.6000
 20
0.2200
 30
0.0
 11
0.6000
 21
0.2400
 31
0.0
  0
LINE
  8
SILK1
 10
0.5900
 20
0.2300
 30
0.0
 11
0.6100
 21
0.2300
 31
0.0
  0
LINE
  8
SILK1
 10
0.6694
 20
0.8306
 30
0.0
 11
0.6994
 21
0.8406
 31
0.0
  0
LINE
  8
SILK1
 10
0.6994
 20
0.8406
 30
0.0
 11
0.6694
 21
0.8506
 31
0.0
  0
LINE
  8
SILK1
 10
0.6994
 20
0.8731
 30
0.0
 11
0.6994
 21
0.8669
 31
0.0
  0
LINE
  8
SILK1
 10
0.6969
 20
0.8606
 30
0.0
 11
0.6994
 21
0.8631
 31
0.0
  0
LINE
  8
SILK1
 10
0.6994
 20
0.8631
 30
0.0
 11
0.6994
 21
0.8769
 31
0.0
  0
LINE
  8
SILK1
 10
0.6994
 20
0.8769
 30
0.0
 11
0.6969
 21
0.8794
 31
0.0
  0
LINE
  8
SILK1
 10
0.6969
 20
0.8794
 30
0.0
 11
0.6919
 21
0.8794
 31
0.0
  0
LINE
  8
SILK1
 10
0.6919
 20
0.8794
 30
0.0
 11
0.6894
 21
0.8769
 31
0.0
  0
LINE
  8
SILK1
 10
0.6894
 20
0.8769
 30
0.0
 11
0.6894
 21
0.8631
 31
0.0
  0
LINE
  8
SILK1
 10
0.6894
 20
0.8631
 30
0.0
 11
0.6869
 21
0.8606
 31
0.0
  0
LINE
  8
SILK1
 10
0.6869
 20
0.8606
 30
0.0
 11
0.6819
 21
0.8606
 31
0.0
  0
LINE
  8
SILK1
 10
0.6819
 20
0.8606
 30
0.0
 11
0.6794
 21
0.8631
 31
0.0
  0
LINE
  8
SILK1
 10
0.6794
 20
0.8631
 30
0.0
 11
0.6794
 21
0.8769
 31
0.0
  0
LINE
  8
SILK1
 10
0.6794
 20
0.8769
 30
0.0
 11
0.6819
 21
0.8794
 31
0.0
  0
LINE
  8
SILK1
 10
0.6800
 20
0.9000
 30
0.0
 11
0.6994
 21
0.9000
 31
0.0
  0
LINE
  8
SILK1
 10
0.6719
 20
0.9000
 30
0.0
 11
0.6712
 21
0.9000
 31
0.0
  0
LINE
  8
SILK1
 10
0.6931
 20
0.9394
 30
0.0
 11
0.6994
 21
0.9331
 31
0.0
  0
LINE
  8
SILK1
 10
0.6994
 20
0.9331
 30
0.0
 11
0.6994
 21
0.9269
 31
0.0
  0
LINE
  8
SILK1
 10
0.6994
 20
0.9269
 30
0.0
 11
0.6931
 21
0.9206
 31
0.0
  0
LINE
  8
SILK1
 10
0.6931
 20
0.9206
 30
0.0
 11
0.6844
 21
0.9206
 31
0.0
  0
LINE
  8
SILK1
 10
0.6844
 20
0.9206
 30
0.0
 11
0.6794
 21
0.9269
 31
0.0
  0
LINE
  8
SILK1
 10
0.6794
 20
0.9269
 30
0.0
 11
0.6794
 21
0.9331
 31
0.0
  0
LINE
  8
SILK1
 10
0.6794
 20
0.9331
 30
0.0
 11
0.6856
 21
0.9394
 31
0.0
  0
LINE
  8
SILK1
 10
0.6856
 20
0.9394
 30
0.0
 11
0.7044
 21
0.9394
 31
0.0
  0
LINE
  8
SILK1
 10
0.7044
 20
0.9394
 30
0.0
 11
0.7106
 21
0.9331
 31
0.0
  0
LINE
  8
SILK1
 10
0.7106
 20
0.9331
 30
0.0
 11
0.7106
 21
0.9269
 31
0.0
  0
LINE
  8
SILK1
 10
0.7106
 20
0.9269
 30
0.0
 11
0.7069
 21
0.9206
 31
0.0
  0
LINE
  8
SILK1
 10
0.5029
 20
1.2600
 30
0.0
 11
0.4943
 21
1.2714
 31
0.0
  0
LINE
  8
SILK1
 10
0.4943
 20
1.2714
 30
0.0
 11
0.4857
 21
1.2600
 31
0.0
  0
LINE
  8
SILK1
 10
0.5371
 20
1.2600
 30
0.0
 11
0.5286
 21
1.2714
 31
0.0
  0
LINE
  8
SILK1
 10
0.5286
 20
1.2714
 30
0.0
 11
0.5200
 21
1.2600
 31
0.0
  0
LINE
  8
SILK1
 10
0.5714
 20
1.2600
 30
0.0
 11
0.5629
 21
1.2714
 31
0.0
  0
LINE
  8
SILK1
 10
0.5629
 20
1.2714
 30
0.0
 11
0.5543
 21
1.2600
 31
0.0
  0
LINE
  8
SILK1
 10
0.6057
 20
1.2600
 30
0.0
 11
0.5971
 21
1.2714
 31
0.0
  0
LINE
  8
SILK1
 10
0.5971
 20
1.2714
 30
0.0
 11
0.5886
 21
1.2600
 31
0.0
  0
LINE
  8
SILK1
 10
0.6429
 20
1.2743
 30
0.0
 11
0.6200
 21
1.2743
 31
0.0
  0
LINE
  8
SILK1
 10
0.6200
 20
1.2743
 30
0.0
 11
0.6200
 21
1.2571
 31
0.0
  0
LINE
  8
SILK1
 10
0.6200
 20
1.2571
 30
0.0
 11
0.6200
 21
1.2400
 31
0.0
  0
LINE
  8
SILK1
 10
0.6200
 20
1.2571
 30
0.0
 11
0.6371
 21
1.2571
 31
0.0
  0
LINE
  8
SILK1
 10
0.6771
 20
1.2686
 30
0.0
 11
0.6714
 21
1.2743
 31
0.0
  0
LINE
  8
SILK1
 10
0.6714
 20
1.2743
 30
0.0
 11
0.6600
 21
1.2743
 31
0.0
  0
LINE
  8
SILK1
 10
0.6600
 20
1.2743
 30
0.0
 11
0.6543
 21
1.2686
 31
0.0
  0
LINE
  8
SILK1
 10
0.6543
 20
1.2686
 30
0.0
 11
0.6543
 21
1.2457
 31
0.0
  0
LINE
  8
SILK1
 10
0.6543
 20
1.2457
 30
0.0
 11
0.6600
 21
1.2400
 31
0.0
  0
LINE
  8
SILK1
 10
0.6600
 20
1.2400
 30
0.0
 11
0.6714
 21
1.2400
 31
0.0
  0
LINE
  8
SILK1
 10
0.6714
 20
1.2400
 30
0.0
 11
0.6771
 21
1.2457
 31
0.0
  0
LINE
  8
SILK1
 10
0.6771
 20
1.2457
 30
0.0
 11
0.6771
 21
1.2686
 31
0.0
  0
LINE
  8
SILK1
 10
0.6886
 20
1.2400
 30
0.0
 11
0.6886
 21
1.2743
 31
0.0
  0
LINE
  8
SILK1
 10
0.6886
 20
1.2743
 30
0.0
 11
0.7057
 21
1.2743
 31
0.0
  0
LINE
  8
SILK1
 10
0.7057
 20
1.2743
 30
0.0
 11
0.7114
 21
1.2686
 31
0.0
  0
LINE
  8
SILK1
 10
0.7114
 20
1.2686
 30
0.0
 11
0.7114
 21
1.2629
 31
0.0
  0
LINE
  8
SILK1
 10
0.7114
 20
1.2629
 30
0.0
 11
0.7057
 21
1.2571
 31
0.0
  0
LINE
  8
SILK1
 10
0.7057
 20
1.2571
 30
0.0
 11
0.7114
 21
1.2400
 31
0.0
  0
LINE
  8
SILK1
 10
0.7057
 20
1.2571
 30
0.0
 11
0.6886
 21
1.2571
 31
0.0
  0
LINE
  8
SILK1
 10
0.7229
 20
1.2743
 30
0.0
 11
0.7286
 21
1.2400
 31
0.0
  0
LINE
  8
SILK1
 10
0.7286
 20
1.2400
 30
0.0
 11
0.7343
 21
1.2743
 31
0.0
  0
LINE
  8
SILK1
 10
0.7343
 20
1.2743
 30
0.0
 11
0.7400
 21
1.2400
 31
0.0
  0
LINE
  8
SILK1
 10
0.7400
 20
1.2400
 30
0.0
 11
0.7457
 21
1.2743
 31
0.0
  0
LINE
  8
SILK1
 10
0.7571
 20
1.2400
 30
0.0
 11
0.7686
 21
1.2743
 31
0.0
  0
LINE
  8
SILK1
 10
0.7686
 20
1.2743
 30
0.0
 11
0.7757
 21
1.2529
 31
0.0
  0
LINE
  8
SILK1
 10
0.7757
 20
1.2529
 30
0.0
 11
0.7800
 21
1.2400
 31
0.0
  0
LINE
  8
SILK1
 10
0.7757
 20
1.2529
 30
0.0
 11
0.7614
 21
1.2529
 31
0.0
  0
LINE
  8
SILK1
 10
0.7914
 20
1.2400
 30
0.0
 11
0.7914
 21
1.2743
 31
0.0
  0
LINE
  8
SILK1
 10
0.7914
 20
1.2743
 30
0.0
 11
0.8086
 21
1.2743
 31
0.0
  0
LINE
  8
SILK1
 10
0.8086
 20
1.2743
 30
0.0
 11
0.8143
 21
1.2686
 31
0.0
  0
LINE
  8
SILK1
 10
0.8143
 20
1.2686
 30
0.0
 11
0.8143
 21
1.2629
 31
0.0
  0
LINE
  8
SILK1
 10
0.8143
 20
1.2629
 30
0.0
 11
0.8086
 21
1.2571
 31
0.0
  0
LINE
  8
SILK1
 10
0.8086
 20
1.2571
 30
0.0
 11
0.8143
 21
1.2400
 31
0.0
  0
LINE
  8
SILK1
 10
0.8086
 20
1.2571
 30
0.0
 11
0.7914
 21
1.2571
 31
0.0
  0
LINE
  8
SILK1
 10
0.8486
 20
1.2686
 30
0.0
 11
0.8429
 21
1.2743
 31
0.0
  0
LINE
  8
SILK1
 10
0.8429
 20
1.2743
 30
0.0
 11
0.8257
 21
1.2743
 31
0.0
  0
LINE
  8
SILK1
 10
0.8257
 20
1.2743
 30
0.0
 11
0.8257
 21
1.2400
 31
0.0
  0
LINE
  8
SILK1
 10
0.8257
 20
1.2400
 30
0.0
 11
0.8429
 21
1.2400
 31
0.0
  0
LINE
  8
SILK1
 10
0.8429
 20
1.2400
 30
0.0
 11
0.8486
 21
1.2457
 31
0.0
  0
LINE
  8
SILK1
 10
0.8486
 20
1.2457
 30
0.0
 11
0.8486
 21
1.2686
 31
0.0
  0
LINE
  8
SILK1
 10
0.8800
 20
1.2600
 30
0.0
 11
0.8714
 21
1.2714
 31
0.0
  0
LINE
  8
SILK1
 10
0.8714
 20
1.2714
 30
0.0
 11
0.8629
 21
1.2600
 31
0.0
  0
LINE
  8
SILK1
 10
0.9143
 20
1.2600
 30
0.0
 11
0.9057
 21
1.2714
 31
0.0
  0
LINE
  8
SILK1
 10
0.9057
 20
1.2714
 30
0.0
 11
0.8971
 21
1.2600
 31
0.0
  0
LINE
  8
SILK1
 10
0.9486
 20
1.2600
 30
0.0
 11
0.9400
 21
1.2714
 31
0.0
  0
LINE
  8
SILK1
 10
0.9400
 20
1.2714
 30
0.0
 11
0.9314
 21
1.2600
 31
0.0
  0
LINE
  8
SILK1
 10
0.9829
 20
1.2600
 30
0.0
 11
0.9743
 21
1.2714
 31
0.0
  0
LINE
  8
SILK1
 10
0.9743
 20
1.2714
 30
0.0
 11
0.9657
 21
1.2600
 31
0.0
  0
LINE
  8
SILK1
 10
1.1000
 20
0.6750
 30
0.0
 11
1.0950
 21
0.6700
 31
0.0
  0
LINE
  8
SILK1
 10
1.0950
 20
0.6700
 30
0.0
 11
1.0950
 21
0.6600
 31
0.0
  0
LINE
  8
SILK1
 10
1.0950
 20
0.6600
 30
0.0
 11
1.1000
 21
0.6550
 31
0.0
  0
LINE
  8
SILK1
 10
1.1000
 20
0.6550
 30
0.0
 11
1.1200
 21
0.6550
 31
0.0
  0
LINE
  8
SILK1
 10
1.1200
 20
0.6550
 30
0.0
 11
1.1250
 21
0.6600
 31
0.0
  0
LINE
  8
SILK1
 10
1.1250
 20
0.6600
 30
0.0
 11
1.1250
 21
0.6700
 31
0.0
  0
LINE
  8
SILK1
 10
1.1250
 20
0.6700
 30
0.0
 11
1.1200
 21
0.6750
 31
0.0
  0
LINE
  8
SILK1
 10
1.1200
 20
0.6750
 30
0.0
 11
1.1000
 21
0.6750
 31
0.0
  0
LINE
  8
SILK1
 10
1.1000
 20
0.7050
 30
0.0
 11
1.0950
 21
0.7000
 31
0.0
  0
LINE
  8
SILK1
 10
1.0950
 20
0.7000
 30
0.0
 11
1.0950
 21
0.6900
 31
0.0
  0
LINE
  8
SILK1
 10
1.0950
 20
0.6900
 30
0.0
 11
1.1000
 21
0.6850
 31
0.0
  0
LINE
  8
SILK1
 10
1.1000
 20
0.6850
 30
0.0
 11
1.1050
 21
0.6850
 31
0.0
  0
LINE
  8
SILK1
 10
1.1050
 20
0.6850
 30
0.0
 11
1.1100
 21
0.6900
 31
0.0
  0
LINE
  8
SILK1
 10
1.1100
 20
0.6900
 30
0.0
 11
1.1100
 21
0.7000
 31
0.0
  0
LINE
  8
SILK1
 10
1.1100
 20
0.7000
 30
0.0
 11
1.1150
 21
0.7050
 31
0.0
  0
LINE
  8
SILK1
 10
1.1150
 20
0.7050
 30
0.0
 11
1.1200
 21
0.7050
 31
0.0
  0
LINE
  8
SILK1
 10
1.1200
 20
0.7050
 30
0.0
 11
1.1250
 21
0.7000
 31
0.0
  0
LINE
  8
SILK1
 10
1.1250
 20
0.7000
 30
0.0
 11
1.1250
 21
0.6900
 31
0.0
  0
LINE
  8
SILK1
 10
1.1250
 20
0.6900
 30
0.0
 11
1.1200
 21
0.6850
 31
0.0
  0
LINE
  8
SILK1
 10
1.1000
 20
0.7350
 30
0.0
 11
1.0950
 21
0.7300
 31
0.0
  0
LINE
  8
SILK1
 10
1.0950
 20
0.7300
 30
0.0
 11
1.0950
 21
0.7150
 31
0.0
  0
LINE
  8
SILK1
 10
1.0950
 20
0.7150
 30
0.0
 11
1.1250
 21
0.7150
 31
0.0
  0
LINE
  8
SILK1
 10
1.1250
 20
0.7150
 30
0.0
 11
1.1250
 21
0.7300
 31
0.0
  0
LINE
  8
SILK1
 10
1.1250
 20
0.7300
 30
0.0
 11
1.1200
 21
0.7350
 31
0.0
  0
LINE
  8
SILK1
 10
1.1200
 20
0.7350
 30
0.0
 11
1.1000
 21
0.7350
 31
0.0
  0
LINE
  8
SILK1
 10
1.3529
 20
1.0957
 30
0.0
 11
1.3529
 21
1.0729
 31
0.0
  0
LINE
  8
SILK1
 10
1.3529
 20
1.0729
 30
0.0
 11
1.3700
 21
1.0729
 31
0.0
  0
LINE
  8
SILK1
 10
1.3700
 20
1.0729
 30
0.0
 11
1.3871
 21
1.0729
 31
0.0
  0
LINE
  8
SILK1
 10
1.3871
 20
1.0729
 30
0.0
 11
1.3871
 21
1.0957
 31
0.0
  0
LINE
  8
SILK1
 10
1.3700
 20
1.0729
 30
0.0
 11
1.3700
 21
1.0900
 31
0.0
  0
LINE
  8
SILK1
 10
1.3586
 20
1.1071
 30
0.0
 11
1.3529
 21
1.1129
 31
0.0
  0
LINE
  8
SILK1
 10
1.3529
 20
1.1129
 30
0.0
 11
1.3529
 21
1.1243
 31
0.0
  0
LINE
  8
SILK1
 10
1.3529
 20
1.1243
 30
0.0
 11
1.3586
 21
1.1300
 31
0.0
  0
LINE
  8
SILK1
 10
1.3586
 20
1.1300
 30
0.0
 11
1.3643
 21
1.1300
 31
0.0
  0
LINE
  8
SILK1
 10
1.3643
 20
1.1300
 30
0.0
 11
1.3700
 21
1.1243
 31
0.0
  0
LINE
  8
SILK1
 10
1.3700
 20
1.1243
 30
0.0
 11
1.3814
 21
1.1071
 31
0.0
  0
LINE
  8
SILK1
 10
1.3814
 20
1.1071
 30
0.0
 11
1.3871
 21
1.1071
 31
0.0
  0
LINE
  8
SILK1
 10
1.3871
 20
1.1071
 30
0.0
 11
1.3871
 21
1.1300
 31
0.0
  0
LINE
  8
SILK1
 10
1.3300
 20
0.2800
 30
0.0
 11
1.3300
 21
0.2746
 31
0.0
  0
LINE
  8
SILK1
 10
1.3279
 20
0.2693
 30
0.0
 11
1.3300
 21
0.2714
 31
0.0
  0
LINE
  8
SILK1
 10
1.3300
 20
0.2714
 30
0.0
 11
1.3300
 21
0.2832
 31
0.0
  0
LINE
  8
SILK1
 10
1.3300
 20
0.2832
 30
0.0
 11
1.3279
 21
0.2854
 31
0.0
  0
LINE
  8
SILK1
 10
1.3279
 20
0.2854
 30
0.0
 11
1.3236
 21
0.2854
 31
0.0
  0
LINE
  8
SILK1
 10
1.3236
 20
0.2854
 30
0.0
 11
1.3214
 21
0.2832
 31
0.0
  0
LINE
  8
SILK1
 10
1.3214
 20
0.2832
 30
0.0
 11
1.3214
 21
0.2714
 31
0.0
  0
LINE
  8
SILK1
 10
1.3214
 20
0.2714
 30
0.0
 11
1.3193
 21
0.2693
 31
0.0
  0
LINE
  8
SILK1
 10
1.3193
 20
0.2693
 30
0.0
 11
1.3150
 21
0.2693
 31
0.0
  0
LINE
  8
SILK1
 10
1.3150
 20
0.2693
 30
0.0
 11
1.3129
 21
0.2714
 31
0.0
  0
LINE
  8
SILK1
 10
1.3129
 20
0.2714
 30
0.0
 11
1.3129
 21
0.2832
 31
0.0
  0
LINE
  8
SILK1
 10
1.3129
 20
0.2832
 30
0.0
 11
1.3150
 21
0.2854
 31
0.0
  0
LINE
  8
SILK1
 10
1.3134
 20
0.3030
 30
0.0
 11
1.3300
 21
0.3030
 31
0.0
  0
LINE
  8
SILK1
 10
1.3064
 20
0.3030
 30
0.0
 11
1.3059
 21
0.3030
 31
0.0
  0
LINE
  8
SILK1
 10
1.3246
 20
0.3368
 30
0.0
 11
1.3300
 21
0.3314
 31
0.0
  0
LINE
  8
SILK1
 10
1.3300
 20
0.3314
 30
0.0
 11
1.3300
 21
0.3261
 31
0.0
  0
LINE
  8
SILK1
 10
1.3300
 20
0.3261
 30
0.0
 11
1.3246
 21
0.3207
 31
0.0
  0
LINE
  8
SILK1
 10
1.3246
 20
0.3207
 30
0.0
 11
1.3171
 21
0.3207
 31
0.0
  0
LINE
  8
SILK1
 10
1.3171
 20
0.3207
 30
0.0
 11
1.3129
 21
0.3261
 31
0.0
  0
LINE
  8
SILK1
 10
1.3129
 20
0.3261
 30
0.0
 11
1.3129
 21
0.3314
 31
0.0
  0
LINE
  8
SILK1
 10
1.3129
 20
0.3314
 30
0.0
 11
1.3182
 21
0.3368
 31
0.0
  0
LINE
  8
SILK1
 10
1.3182
 20
0.3368
 30
0.0
 11
1.3343
 21
0.3368
 31
0.0
  0
LINE
  8
SILK1
 10
1.3343
 20
0.3368
 30
0.0
 11
1.3396
 21
0.3314
 31
0.0
  0
LINE
  8
SILK1
 10
1.3396
 20
0.3314
 30
0.0
 11
1.3396
 21
0.3261
 31
0.0
  0
LINE
  8
SILK1
 10
1.3396
 20
0.3261
 30
0.0
 11
1.3364
 21
0.3207
 31
0.0
  0
LINE
  8
SILK1
 10
1.3107
 20
0.3464
 30
0.0
 11
1.3300
 21
0.3464
 31
0.0
  0
LINE
  8
SILK1
 10
1.3182
 20
0.3464
 30
0.0
 11
1.3129
 21
0.3518
 31
0.0
  0
LINE
  8
SILK1
 10
1.3129
 20
0.3518
 30
0.0
 11
1.3129
 21
0.3571
 31
0.0
  0
LINE
  8
SILK1
 10
1.3129
 20
0.3571
 30
0.0
 11
1.3182
 21
0.3625
 31
0.0
  0
LINE
  8
SILK1
 10
1.3182
 20
0.3625
 30
0.0
 11
1.3300
 21
0.3625
 31
0.0
  0
LINE
  8
SILK1
 10
1.3300
 20
0.3893
 30
0.0
 11
1.3129
 21
0.3893
 31
0.0
  0
LINE
  8
SILK1
 10
1.3244
 20
0.3721
 30
0.0
 11
1.3191
 21
0.3736
 31
0.0
  0
LINE
  8
SILK1
 10
1.3191
 20
0.3736
 30
0.0
 11
1.3154
 21
0.3760
 31
0.0
  0
LINE
  8
SILK1
 10
1.3154
 20
0.3760
 30
0.0
 11
1.3135
 21
0.3790
 31
0.0
  0
LINE
  8
SILK1
 10
1.3135
 20
0.3790
 30
0.0
 11
1.3129
 21
0.3811
 31
0.0
  0
LINE
  8
SILK1
 10
1.3129
 20
0.3811
 30
0.0
 11
1.3129
 21
0.3829
 31
0.0
  0
LINE
  8
SILK1
 10
1.3129
 20
0.3829
 30
0.0
 11
1.3129
 21
0.3859
 31
0.0
  0
LINE
  8
SILK1
 10
1.3129
 20
0.3859
 30
0.0
 11
1.3146
 21
0.3893
 31
0.0
  0
LINE
  8
SILK1
 10
1.3246
 20
0.3721
 30
0.0
 11
1.3259
 21
0.3721
 31
0.0
  0
LINE
  8
SILK1
 10
1.3259
 20
0.3721
 30
0.0
 11
1.3268
 21
0.3724
 31
0.0
  0
LINE
  8
SILK1
 10
1.3268
 20
0.3724
 30
0.0
 11
1.3279
 21
0.3730
 31
0.0
  0
LINE
  8
SILK1
 10
1.3279
 20
0.3730
 30
0.0
 11
1.3287
 21
0.3745
 31
0.0
  0
LINE
  8
SILK1
 10
1.3287
 20
0.3745
 30
0.0
 11
1.3300
 21
0.3775
 31
0.0
  0
LINE
  8
SILK1
 10
1.3300
 20
0.3775
 30
0.0
 11
1.3300
 21
0.3822
 31
0.0
  0
LINE
  8
SILK1
 10
1.3300
 20
0.3822
 30
0.0
 11
1.3281
 21
0.3867
 31
0.0
  0
LINE
  8
SILK1
 10
1.3281
 20
0.3867
 30
0.0
 11
1.3257
 21
0.3893
 31
0.0
  0
LINE
  8
SILK1
 10
1.3300
 20
0.4021
 30
0.0
 11
1.3043
 21
0.4021
 31
0.0
  0
LINE
  8
SILK1
 10
1.3043
 20
0.4654
 30
0.0
 11
1.3300
 21
0.4654
 31
0.0
  0
LINE
  8
SILK1
 10
1.3182
 20
0.4654
 30
0.0
 11
1.3129
 21
0.4600
 31
0.0
  0
LINE
  8
SILK1
 10
1.3129
 20
0.4600
 30
0.0
 11
1.3129
 21
0.4546
 31
0.0
  0
LINE
  8
SILK1
 10
1.3129
 20
0.4546
 30
0.0
 11
1.3171
 21
0.4493
 31
0.0
  0
LINE
  8
SILK1
 10
1.3171
 20
0.4493
 30
0.0
 11
1.3246
 21
0.4493
 31
0.0
  0
LINE
  8
SILK1
 10
1.3246
 20
0.4493
 30
0.0
 11
1.3300
 21
0.4546
 31
0.0
  0
LINE
  8
SILK1
 10
1.3300
 20
0.4546
 30
0.0
 11
1.3300
 21
0.4600
 31
0.0
  0
LINE
  8
SILK1
 10
1.3300
 20
0.4600
 30
0.0
 11
1.3246
 21
0.4654
 31
0.0
  0
LINE
  8
SILK1
 10
1.3134
 20
0.4830
 30
0.0
 11
1.3300
 21
0.4830
 31
0.0
  0
LINE
  8
SILK1
 10
1.3064
 20
0.4830
 30
0.0
 11
1.3059
 21
0.4830
 31
0.0
  0
LINE
  8
SILK1
 10
1.3300
 20
0.5114
 30
0.0
 11
1.3300
 21
0.5061
 31
0.0
  0
LINE
  8
SILK1
 10
1.3279
 20
0.5007
 30
0.0
 11
1.3300
 21
0.5029
 31
0.0
  0
LINE
  8
SILK1
 10
1.3300
 20
0.5029
 30
0.0
 11
1.3300
 21
0.5146
 31
0.0
  0
LINE
  8
SILK1
 10
1.3300
 20
0.5146
 30
0.0
 11
1.3279
 21
0.5168
 31
0.0
  0
LINE
  8
SILK1
 10
1.3279
 20
0.5168
 30
0.0
 11
1.3236
 21
0.5168
 31
0.0
  0
LINE
  8
SILK1
 10
1.3236
 20
0.5168
 30
0.0
 11
1.3214
 21
0.5146
 31
0.0
  0
LINE
  8
SILK1
 10
1.3214
 20
0.5146
 30
0.0
 11
1.3214
 21
0.5029
 31
0.0
  0
LINE
  8
SILK1
 10
1.3214
 20
0.5029
 30
0.0
 11
1.3193
 21
0.5007
 31
0.0
  0
LINE
  8
SILK1
 10
1.3193
 20
0.5007
 30
0.0
 11
1.3150
 21
0.5007
 31
0.0
  0
LINE
  8
SILK1
 10
1.3150
 20
0.5007
 30
0.0
 11
1.3129
 21
0.5029
 31
0.0
  0
LINE
  8
SILK1
 10
1.3129
 20
0.5029
 30
0.0
 11
1.3129
 21
0.5146
 31
0.0
  0
LINE
  8
SILK1
 10
1.3129
 20
0.5146
 30
0.0
 11
1.3150
 21
0.5168
 31
0.0
  0
LINE
  8
SILK1
 10
1.3086
 20
0.5307
 30
0.0
 11
1.3279
 21
0.5307
 31
0.0
  0
LINE
  8
SILK1
 10
1.3279
 20
0.5307
 30
0.0
 11
1.3300
 21
0.5329
 31
0.0
  0
LINE
  8
SILK1
 10
1.3300
 20
0.5329
 30
0.0
 11
1.3300
 21
0.5361
 31
0.0
  0
LINE
  8
SILK1
 10
1.3300
 20
0.5361
 30
0.0
 11
1.3279
 21
0.5382
 31
0.0
  0
LINE
  8
SILK1
 10
1.3129
 20
0.5264
 30
0.0
 11
1.3129
 21
0.5350
 31
0.0
  0
LINE
  8
SILK1
 10
1.3107
 20
0.5521
 30
0.0
 11
1.3300
 21
0.5521
 31
0.0
  0
LINE
  8
SILK1
 10
1.3161
 20
0.5682
 30
0.0
 11
1.3129
 21
0.5629
 31
0.0
  0
LINE
  8
SILK1
 10
1.3129
 20
0.5629
 30
0.0
 11
1.3129
 21
0.5575
 31
0.0
  0
LINE
  8
SILK1
 10
1.3129
 20
0.5575
 30
0.0
 11
1.3161
 21
0.5521
 31
0.0
  0
LINE
  8
SILK1
 10
1.3246
 20
0.5779
 30
0.0
 11
1.3182
 21
0.5779
 31
0.0
  0
LINE
  8
SILK1
 10
1.3182
 20
0.5779
 30
0.0
 11
1.3129
 21
0.5832
 31
0.0
  0
LINE
  8
SILK1
 10
1.3129
 20
0.5832
 30
0.0
 11
1.3129
 21
0.5886
 31
0.0
  0
LINE
  8
SILK1
 10
1.3129
 20
0.5886
 30
0.0
 11
1.3182
 21
0.5939
 31
0.0
  0
LINE
  8
SILK1
 10
1.3182
 20
0.5939
 30
0.0
 11
1.3246
 21
0.5939
 31
0.0
  0
LINE
  8
SILK1
 10
1.3246
 20
0.5939
 30
0.0
 11
1.3300
 21
0.5886
 31
0.0
  0
LINE
  8
SILK1
 10
1.3300
 20
0.5886
 30
0.0
 11
1.3300
 21
0.5832
 31
0.0
  0
LINE
  8
SILK1
 10
1.3300
 20
0.5832
 30
0.0
 11
1.3246
 21
0.5779
 31
0.0
  0
LINE
  8
SILK1
 10
1.3129
 20
0.6293
 30
0.0
 11
1.3300
 21
0.6379
 31
0.0
  0
LINE
  8
SILK1
 10
1.3129
 20
0.6464
 30
0.0
 11
1.3300
 21
0.6379
 31
0.0
  0
LINE
  8
SILK1
 10
1.3086
 20
0.6593
 30
0.0
 11
1.3043
 21
0.6636
 31
0.0
  0
LINE
  8
SILK1
 10
1.3043
 20
0.6636
 30
0.0
 11
1.3300
 21
0.6636
 31
0.0
  0
LINE
  8
SILK1
 10
1.3300
 20
0.6636
 30
0.0
 11
1.3300
 21
0.6679
 31
0.0
  0
LINE
  8
SILK1
 10
1.3300
 20
0.6636
 30
0.0
 11
1.3300
 21
0.6593
 31
0.0
  0
LINE
  8
SILK1
 10
1.3300
 20
0.6871
 30
0.0
 11
1.3300
 21
0.6893
 31
0.0
  0
LINE
  8
SILK1
 10
1.3300
 20
0.6893
 30
0.0
 11
1.3279
 21
0.6893
 31
0.0
  0
LINE
  8
SILK1
 10
1.3279
 20
0.6893
 30
0.0
 11
1.3279
 21
0.6871
 31
0.0
  0
LINE
  8
SILK1
 10
1.3279
 20
0.6871
 30
0.0
 11
1.3300
 21
0.6871
 31
0.0
  0
LINE
  8
SILK1
 10
1.3086
 20
0.7236
 30
0.0
 11
1.3043
 21
0.7193
 31
0.0
  0
LINE
  8
SILK1
 10
1.3043
 20
0.7193
 30
0.0
 11
1.3043
 21
0.7107
 31
0.0
  0
LINE
  8
SILK1
 10
1.3043
 20
0.7107
 30
0.0
 11
1.3086
 21
0.7064
 31
0.0
  0
LINE
  8
SILK1
 10
1.3086
 20
0.7064
 30
0.0
 11
1.3257
 21
0.7064
 31
0.0
  0
LINE
  8
SILK1
 10
1.3257
 20
0.7064
 30
0.0
 11
1.3300
 21
0.7107
 31
0.0
  0
LINE
  8
SILK1
 10
1.3300
 20
0.7107
 30
0.0
 11
1.3300
 21
0.7193
 31
0.0
  0
LINE
  8
SILK1
 10
1.3300
 20
0.7193
 30
0.0
 11
1.3257
 21
0.7236
 31
0.0
  0
LINE
  8
SILK1
 10
1.3257
 20
0.7236
 30
0.0
 11
1.3086
 21
0.7236
 31
0.0
  0
LINE
  8
SILK1
 10
1.3129
 20
0.7150
 30
0.0
 11
1.3214
 21
0.7150
 31
0.0
  0
LINE
  8
SILK1
 10
0.2600
 20
1.0125
 30
0.0
 11
0.2600
 21
0.9900
 31
0.0
  0
LINE
  8
SILK1
 10
0.2600
 20
1.0037
 30
0.0
 11
0.2662
 21
1.0100
 31
0.0
  0
LINE
  8
SILK1
 10
0.2662
 20
1.0100
 30
0.0
 11
0.2725
 21
1.0100
 31
0.0
  0
LINE
  8
SILK1
 10
0.2725
 20
1.0100
 30
0.0
 11
0.2787
 21
1.0037
 31
0.0
  0
LINE
  8
SILK1
 10
0.2787
 20
1.0037
 30
0.0
 11
0.2787
 21
0.9900
 31
0.0
  0
LINE
  8
SILK1
 10
0.2900
 20
0.9900
 30
0.0
 11
0.3100
 21
1.0200
 31
0.0
  0
LINE
  8
SILK1
 10
0.3400
 20
0.9900
 30
0.0
 11
0.3400
 21
1.0100
 31
0.0
  0
LINE
  8
SILK1
 10
0.3200
 20
0.9965
 30
0.0
 11
0.3217
 21
1.0028
 31
0.0
  0
LINE
  8
SILK1
 10
0.3217
 20
1.0028
 30
0.0
 11
0.3245
 21
1.0070
 31
0.0
  0
LINE
  8
SILK1
 10
0.3245
 20
1.0070
 30
0.0
 11
0.3280
 21
1.0092
 31
0.0
  0
LINE
  8
SILK1
 10
0.3280
 20
1.0092
 30
0.0
 11
0.3305
 21
1.0100
 31
0.0
  0
LINE
  8
SILK1
 10
0.3305
 20
1.0100
 30
0.0
 11
0.3325
 21
1.0100
 31
0.0
  0
LINE
  8
SILK1
 10
0.3325
 20
1.0100
 30
0.0
 11
0.3360
 21
1.0100
 31
0.0
  0
LINE
  8
SILK1
 10
0.3360
 20
1.0100
 30
0.0
 11
0.3400
 21
1.0080
 31
0.0
  0
LINE
  8
SILK1
 10
0.3200
 20
0.9962
 30
0.0
 11
0.3200
 21
0.9948
 31
0.0
  0
LINE
  8
SILK1
 10
0.3200
 20
0.9948
 30
0.0
 11
0.3202
 21
0.9938
 31
0.0
  0
LINE
  8
SILK1
 10
0.3202
 20
0.9938
 30
0.0
 11
0.3210
 21
0.9925
 31
0.0
  0
LINE
  8
SILK1
 10
0.3210
 20
0.9925
 30
0.0
 11
0.3227
 21
0.9915
 31
0.0
  0
LINE
  8
SILK1
 10
0.3227
 20
0.9915
 30
0.0
 11
0.3262
 21
0.9900
 31
0.0
  0
LINE
  8
SILK1
 10
0.3262
 20
0.9900
 30
0.0
 11
0.3317
 21
0.9900
 31
0.0
  0
LINE
  8
SILK1
 10
0.3317
 20
0.9900
 30
0.0
 11
0.3370
 21
0.9922
 31
0.0
  0
LINE
  8
SILK1
 10
0.3370
 20
0.9922
 30
0.0
 11
0.3400
 21
0.9950
 31
0.0
  0
LINE
  8
SILK1
 10
0.8063
 20
0.4500
 30
0.0
 11
0.7762
 21
0.4600
 31
0.0
  0
LINE
  8
SILK1
 10
0.7762
 20
0.4600
 30
0.0
 11
0.7950
 21
0.4662
 31
0.0
  0
LINE
  8
SILK1
 10
0.7950
 20
0.4662
 30
0.0
 11
0.8063
 21
0.4700
 31
0.0
  0
LINE
  8
SILK1
 10
0.7950
 20
0.4662
 30
0.0
 11
0.7950
 21
0.4537
 31
0.0
  0
LINE
  8
SILK1
 10
0.8063
 20
0.4925
 30
0.0
 11
0.8063
 21
0.4863
 31
0.0
  0
LINE
  8
SILK1
 10
0.8037
 20
0.4800
 30
0.0
 11
0.8063
 21
0.4825
 31
0.0
  0
LINE
  8
SILK1
 10
0.8063
 20
0.4825
 30
0.0
 11
0.8063
 21
0.4963
 31
0.0
  0
LINE
  8
SILK1
 10
0.8063
 20
0.4963
 30
0.0
 11
0.8037
 21
0.4988
 31
0.0
  0
LINE
  8
SILK1
 10
0.8037
 20
0.4988
 30
0.0
 11
0.7987
 21
0.4988
 31
0.0
  0
LINE
  8
SILK1
 10
0.7987
 20
0.4988
 30
0.0
 11
0.7963
 21
0.4963
 31
0.0
  0
LINE
  8
SILK1
 10
0.7963
 20
0.4963
 30
0.0
 11
0.7963
 21
0.4825
 31
0.0
  0
LINE
  8
SILK1
 10
0.7963
 20
0.4825
 30
0.0
 11
0.7937
 21
0.4800
 31
0.0
  0
LINE
  8
SILK1
 10
0.7937
 20
0.4800
 30
0.0
 11
0.7887
 21
0.4800
 31
0.0
  0
LINE
  8
SILK1
 10
0.7887
 20
0.4800
 30
0.0
 11
0.7863
 21
0.4825
 31
0.0
  0
LINE
  8
SILK1
 10
0.7863
 20
0.4825
 30
0.0
 11
0.7863
 21
0.4963
 31
0.0
  0
LINE
  8
SILK1
 10
0.7863
 20
0.4963
 30
0.0
 11
0.7887
 21
0.4988
 31
0.0
  0
LINE
  8
SILK1
 10
0.7869
 20
0.5194
 30
0.0
 11
0.8063
 21
0.5194
 31
0.0
  0
LINE
  8
SILK1
 10
0.7788
 20
0.5194
 30
0.0
 11
0.7781
 21
0.5194
 31
0.0
  0
LINE
  8
SILK1
 10
0.8000
 20
0.5587
 30
0.0
 11
0.8063
 21
0.5525
 31
0.0
  0
LINE
  8
SILK1
 10
0.8063
 20
0.5525
 30
0.0
 11
0.8063
 21
0.5463
 31
0.0
  0
LINE
  8
SILK1
 10
0.8063
 20
0.5463
 30
0.0
 11
0.8000
 21
0.5400
 31
0.0
  0
LINE
  8
SILK1
 10
0.8000
 20
0.5400
 30
0.0
 11
0.7913
 21
0.5400
 31
0.0
  0
LINE
  8
SILK1
 10
0.7913
 20
0.5400
 30
0.0
 11
0.7863
 21
0.5463
 31
0.0
  0
LINE
  8
SILK1
 10
0.7863
 20
0.5463
 30
0.0
 11
0.7863
 21
0.5525
 31
0.0
  0
LINE
  8
SILK1
 10
0.7863
 20
0.5525
 30
0.0
 11
0.7925
 21
0.5587
 31
0.0
  0
LINE
  8
SILK1
 10
0.7925
 20
0.5587
 30
0.0
 11
0.8113
 21
0.5587
 31
0.0
  0
LINE
  8
SILK1
 10
0.8113
 20
0.5587
 30
0.0
 11
0.8175
 21
0.5525
 31
0.0
  0
LINE
  8
SILK1
 10
0.8175
 20
0.5525
 30
0.0
 11
0.8175
 21
0.5463
 31
0.0
  0
LINE
  8
SILK1
 10
0.8175
 20
0.5463
 30
0.0
 11
0.8137
 21
0.5400
 31
0.0
  0
LINE
  8
SILK1
 10
1.3629
 20
0.9057
 30
0.0
 11
1.3629
 21
0.8829
 31
0.0
  0
LINE
  8
SILK1
 10
1.3629
 20
0.8829
 30
0.0
 11
1.3800
 21
0.8829
 31
0.0
  0
LINE
  8
SILK1
 10
1.3800
 20
0.8829
 30
0.0
 11
1.3971
 21
0.8829
 31
0.0
  0
LINE
  8
SILK1
 10
1.3971
 20
0.8829
 30
0.0
 11
1.3971
 21
0.9057
 31
0.0
  0
LINE
  8
SILK1
 10
1.3800
 20
0.8829
 30
0.0
 11
1.3800
 21
0.9000
 31
0.0
  0
LINE
  8
SILK1
 10
1.3686
 20
0.9229
 30
0.0
 11
1.3629
 21
0.9286
 31
0.0
  0
LINE
  8
SILK1
 10
1.3629
 20
0.9286
 30
0.0
 11
1.3971
 21
0.9286
 31
0.0
  0
LINE
  8
SILK1
 10
1.3971
 20
0.9286
 30
0.0
 11
1.3971
 21
0.9343
 31
0.0
  0
LINE
  8
SILK1
 10
1.3971
 20
0.9286
 30
0.0
 11
1.3971
 21
0.9229
 31
0.0
  0
LINE
  8
SILK1
 10
0.9029
 20
1.0957
 30
0.0
 11
0.9029
 21
1.0729
 31
0.0
  0
LINE
  8
SILK1
 10
0.9029
 20
1.0729
 30
0.0
 11
0.9200
 21
1.0729
 31
0.0
  0
LINE
  8
SILK1
 10
0.9200
 20
1.0729
 30
0.0
 11
0.9371
 21
1.0729
 31
0.0
  0
LINE
  8
SILK1
 10
0.9371
 20
1.0729
 30
0.0
 11
0.9371
 21
1.0957
 31
0.0
  0
LINE
  8
SILK1
 10
0.9200
 20
1.0729
 30
0.0
 11
0.9200
 21
1.0900
 31
0.0
  0
LINE
  8
SILK1
 10
0.9086
 20
1.1071
 30
0.0
 11
0.9029
 21
1.1129
 31
0.0
  0
LINE
  8
SILK1
 10
0.9029
 20
1.1129
 30
0.0
 11
0.9029
 21
1.1243
 31
0.0
  0
LINE
  8
SILK1
 10
0.9029
 20
1.1243
 30
0.0
 11
0.9086
 21
1.1300
 31
0.0
  0
LINE
  8
SILK1
 10
0.9086
 20
1.1300
 30
0.0
 11
0.9143
 21
1.1300
 31
0.0
  0
LINE
  8
SILK1
 10
0.9143
 20
1.1300
 30
0.0
 11
0.9200
 21
1.1243
 31
0.0
  0
LINE
  8
SILK1
 10
0.9200
 20
1.1243
 30
0.0
 11
0.9314
 21
1.1071
 31
0.0
  0
LINE
  8
SILK1
 10
0.9314
 20
1.1071
 30
0.0
 11
0.9371
 21
1.1071
 31
0.0
  0
LINE
  8
SILK1
 10
0.9371
 20
1.1071
 30
0.0
 11
0.9371
 21
1.1300
 31
0.0
  0
LINE
  8
SILK1
 10
0.4071
 20
0.2371
 30
0.0
 11
0.4029
 21
0.2414
 31
0.0
  0
LINE
  8
SILK1
 10
0.4029
 20
0.2414
 30
0.0
 11
0.3943
 21
0.2414
 31
0.0
  0
LINE
  8
SILK1
 10
0.3943
 20
0.2414
 30
0.0
 11
0.3900
 21
0.2371
 31
0.0
  0
LINE
  8
SILK1
 10
0.3900
 20
0.2371
 30
0.0
 11
0.3900
 21
0.2200
 31
0.0
  0
LINE
  8
SILK1
 10
0.3900
 20
0.2200
 30
0.0
 11
0.3943
 21
0.2157
 31
0.0
  0
LINE
  8
SILK1
 10
0.3943
 20
0.2157
 30
0.0
 11
0.4029
 21
0.2157
 31
0.0
  0
LINE
  8
SILK1
 10
0.4029
 20
0.2157
 30
0.0
 11
0.4071
 21
0.2200
 31
0.0
  0
LINE
  8
SILK1
 10
0.4071
 20
0.2200
 30
0.0
 11
0.4071
 21
0.2264
 31
0.0
  0
LINE
  8
SILK1
 10
0.4071
 20
0.2264
 30
0.0
 11
0.4029
 21
0.2264
 31
0.0
  0
LINE
  8
SILK1
 10
0.9200
 20
0.6100
 30
0.0
 11
0.9150
 21
0.6150
 31
0.0
  0
LINE
  8
SILK1
 10
0.9150
 20
0.6150
 30
0.0
 11
0.9050
 21
0.6150
 31
0.0
  0
LINE
  8
SILK1
 10
0.9050
 20
0.6150
 30
0.0
 11
0.9000
 21
0.6100
 31
0.0
  0
LINE
  8
SILK1
 10
0.9000
 20
0.6100
 30
0.0
 11
0.9000
 21
0.5900
 31
0.0
  0
LINE
  8
SILK1
 10
0.9000
 20
0.5900
 30
0.0
 11
0.9050
 21
0.5850
 31
0.0
  0
LINE
  8
SILK1
 10
0.9050
 20
0.5850
 30
0.0
 11
0.9150
 21
0.5850
 31
0.0
  0
LINE
  8
SILK1
 10
0.9150
 20
0.5850
 30
0.0
 11
0.9200
 21
0.5900
 31
0.0
  0
LINE
  8
SILK1
 10
0.9200
 20
0.5900
 30
0.0
 11
0.9200
 21
0.5975
 31
0.0
  0
LINE
  8
SILK1
 10
0.9200
 20
0.5975
 30
0.0
 11
0.9150
 21
0.5975
 31
0.0
  0
LINE
  8
SILK1
 10
0.2600
 20
0.4125
 30
0.0
 11
0.2600
 21
0.3900
 31
0.0
  0
LINE
  8
SILK1
 10
0.2600
 20
0.4037
 30
0.0
 11
0.2662
 21
0.4100
 31
0.0
  0
LINE
  8
SILK1
 10
0.2662
 20
0.4100
 30
0.0
 11
0.2725
 21
0.4100
 31
0.0
  0
LINE
  8
SILK1
 10
0.2725
 20
0.4100
 30
0.0
 11
0.2787
 21
0.4037
 31
0.0
  0
LINE
  8
SILK1
 10
0.2787
 20
0.4037
 30
0.0
 11
0.2787
 21
0.3900
 31
0.0
  0
LINE
  8
SILK1
 10
0.2900
 20
0.3900
 30
0.0
 11
0.3100
 21
0.4200
 31
0.0
  0
LINE
  8
SILK1
 10
0.3400
 20
0.3900
 30
0.0
 11
0.3400
 21
0.4100
 31
0.0
  0
LINE
  8
SILK1
 10
0.3200
 20
0.3965
 30
0.0
 11
0.3217
 21
0.4027
 31
0.0
  0
LINE
  8
SILK1
 10
0.3217
 20
0.4027
 30
0.0
 11
0.3245
 21
0.4070
 31
0.0
  0
LINE
  8
SILK1
 10
0.3245
 20
0.4070
 30
0.0
 11
0.3280
 21
0.4093
 31
0.0
  0
LINE
  8
SILK1
 10
0.3280
 20
0.4093
 30
0.0
 11
0.3305
 21
0.4100
 31
0.0
  0
LINE
  8
SILK1
 10
0.3305
 20
0.4100
 30
0.0
 11
0.3325
 21
0.4100
 31
0.0
  0
LINE
  8
SILK1
 10
0.3325
 20
0.4100
 30
0.0
 11
0.3360
 21
0.4100
 31
0.0
  0
LINE
  8
SILK1
 10
0.3360
 20
0.4100
 30
0.0
 11
0.3400
 21
0.4080
 31
0.0
  0
LINE
  8
SILK1
 10
0.3200
 20
0.3962
 30
0.0
 11
0.3200
 21
0.3947
 31
0.0
  0
LINE
  8
SILK1
 10
0.3200
 20
0.3947
 30
0.0
 11
0.3202
 21
0.3937
 31
0.0
  0
LINE
  8
SILK1
 10
0.3202
 20
0.3937
 30
0.0
 11
0.3210
 21
0.3925
 31
0.0
  0
LINE
  8
SILK1
 10
0.3210
 20
0.3925
 30
0.0
 11
0.3227
 21
0.3915
 31
0.0
  0
LINE
  8
SILK1
 10
0.3227
 20
0.3915
 30
0.0
 11
0.3262
 21
0.3900
 31
0.0
  0
LINE
  8
SILK1
 10
0.3262
 20
0.3900
 30
0.0
 11
0.3317
 21
0.3900
 31
0.0
  0
LINE
  8
SILK1
 10
0.3317
 20
0.3900
 30
0.0
 11
0.3370
 21
0.3922
 31
0.0
  0
LINE
  8
SILK1
 10
0.3370
 20
0.3922
 30
0.0
 11
0.3400
 21
0.3950
 31
0.0
  0
LINE
  8
SILK1
 10
0.3271
 20
0.4943
 30
0.0
 11
0.3271
 21
0.5171
 31
0.0
  0
LINE
  8
SILK1
 10
0.3271
 20
0.5171
 30
0.0
 11
0.3100
 21
0.5171
 31
0.0
  0
LINE
  8
SILK1
 10
0.3100
 20
0.5171
 30
0.0
 11
0.2929
 21
0.5171
 31
0.0
  0
LINE
  8
SILK1
 10
0.2929
 20
0.5171
 30
0.0
 11
0.2929
 21
0.4943
 31
0.0
  0
LINE
  8
SILK1
 10
0.3100
 20
0.5171
 30
0.0
 11
0.3100
 21
0.5000
 31
0.0
  0
LINE
  8
SILK1
 10
0.3214
 20
0.4829
 30
0.0
 11
0.3271
 21
0.4771
 31
0.0
  0
LINE
  8
SILK1
 10
0.3271
 20
0.4771
 30
0.0
 11
0.3271
 21
0.4657
 31
0.0
  0
LINE
  8
SILK1
 10
0.3271
 20
0.4657
 30
0.0
 11
0.3214
 21
0.4600
 31
0.0
  0
LINE
  8
SILK1
 10
0.3214
 20
0.4600
 30
0.0
 11
0.3157
 21
0.4600
 31
0.0
  0
LINE
  8
SILK1
 10
0.3157
 20
0.4600
 30
0.0
 11
0.3100
 21
0.4657
 31
0.0
  0
LINE
  8
SILK1
 10
0.3100
 20
0.4657
 30
0.0
 11
0.3043
 21
0.4600
 31
0.0
  0
LINE
  8
SILK1
 10
0.3043
 20
0.4600
 30
0.0
 11
0.2986
 21
0.4600
 31
0.0
  0
LINE
  8
SILK1
 10
0.2986
 20
0.4600
 30
0.0
 11
0.2929
 21
0.4657
 31
0.0
  0
LINE
  8
SILK1
 10
0.2929
 20
0.4657
 30
0.0
 11
0.2929
 21
0.4771
 31
0.0
  0
LINE
  8
SILK1
 10
0.2929
 20
0.4771
 30
0.0
 11
0.2986
 21
0.4829
 31
0.0
  0
LINE
  8
SILK1
 10
0.3100
 20
0.4657
 30
0.0
 11
0.3100
 21
0.4714
 31
0.0
  0
LINE
  8
SILK1
 10
0.4886
 20
0.4629
 30
0.0
 11
0.4843
 21
0.4586
 31
0.0
  0
LINE
  8
SILK1
 10
0.4843
 20
0.4586
 30
0.0
 11
0.4843
 21
0.4500
 31
0.0
  0
LINE
  8
SILK1
 10
0.4843
 20
0.4500
 30
0.0
 11
0.4886
 21
0.4457
 31
0.0
  0
LINE
  8
SILK1
 10
0.4886
 20
0.4457
 30
0.0
 11
0.5057
 21
0.4457
 31
0.0
  0
LINE
  8
SILK1
 10
0.5057
 20
0.4457
 30
0.0
 11
0.5100
 21
0.4500
 31
0.0
  0
LINE
  8
SILK1
 10
0.5100
 20
0.4500
 30
0.0
 11
0.5100
 21
0.4586
 31
0.0
  0
LINE
  8
SILK1
 10
0.5100
 20
0.4586
 30
0.0
 11
0.5057
 21
0.4629
 31
0.0
  0
LINE
  8
SILK1
 10
0.5057
 20
0.4629
 30
0.0
 11
0.4993
 21
0.4629
 31
0.0
  0
LINE
  8
SILK1
 10
0.4993
 20
0.4629
 30
0.0
 11
0.4993
 21
0.4586
 31
0.0
  0
LINE
  8
SILK1
 10
0.6800
 20
0.1700
 30
0.0
 11
0.6800
 21
0.1500
 31
0.0
  0
LINE
  8
SILK1
 10
0.6800
 20
0.1500
 30
0.0
 11
0.6950
 21
0.1500
 31
0.0
  0
LINE
  8
SILK1
 10
0.6950
 20
0.1500
 30
0.0
 11
0.6900
 21
0.1550
 31
0.0
  0
LINE
  8
SILK1
 10
0.6900
 20
0.1550
 30
0.0
 11
0.6900
 21
0.1650
 31
0.0
  0
LINE
  8
SILK1
 10
0.6900
 20
0.1650
 30
0.0
 11
0.6950
 21
0.1700
 31
0.0
  0
LINE
  8
SILK1
 10
0.6950
 20
0.1700
 30
0.0
 11
0.7050
 21
0.1700
 31
0.0
  0
LINE
  8
SILK1
 10
0.7050
 20
0.1700
 30
0.0
 11
0.7100
 21
0.1650
 31
0.0
  0
LINE
  8
SILK1
 10
0.7100
 20
0.1650
 30
0.0
 11
0.7100
 21
0.1550
 31
0.0
  0
LINE
  8
SILK1
 10
0.7100
 20
0.1550
 30
0.0
 11
0.7050
 21
0.1500
 31
0.0
  0
LINE
  8
SILK1
 10
0.6900
 20
0.1800
 30
0.0
 11
0.7100
 21
0.1900
 31
0.0
  0
LINE
  8
SILK1
 10
0.6900
 20
0.2000
 30
0.0
 11
0.7100
 21
0.1900
 31
0.0
  0
LINE
  8
SILK1
 10
0.6950
 20
0.2100
 30
0.0
 11
0.6950
 21
0.2300
 31
0.0
  0
LINE
  8
SILK1
 10
0.6850
 20
0.2200
 30
0.0
 11
0.7050
 21
0.2200
 31
0.0
  0
LINE
  8
SILK1
 10
0.4900
 20
0.7071
 30
0.0
 11
0.4857
 21
0.7114
 31
0.0
  0
LINE
  8
SILK1
 10
0.4857
 20
0.7114
 30
0.0
 11
0.4771
 21
0.7114
 31
0.0
  0
LINE
  8
SILK1
 10
0.4771
 20
0.7114
 30
0.0
 11
0.4729
 21
0.7071
 31
0.0
  0
LINE
  8
SILK1
 10
0.4729
 20
0.7071
 30
0.0
 11
0.4729
 21
0.6900
 31
0.0
  0
LINE
  8
SILK1
 10
0.4729
 20
0.6900
 30
0.0
 11
0.4771
 21
0.6857
 31
0.0
  0
LINE
  8
SILK1
 10
0.4771
 20
0.6857
 30
0.0
 11
0.4857
 21
0.6857
 31
0.0
  0
LINE
  8
SILK1
 10
0.4857
 20
0.6857
 30
0.0
 11
0.4900
 21
0.6900
 31
0.0
  0
LINE
  8
SILK1
 10
0.4900
 20
0.6900
 30
0.0
 11
0.4900
 21
0.6964
 31
0.0
  0
LINE
  8
SILK1
 10
0.4900
 20
0.6964
 30
0.0
 11
0.4857
 21
0.6964
 31
0.0
  0
LINE
  8
SILK1
 10
1.1600
 20
1.1000
 30
0.0
 11
1.1600
 21
1.0771
 31
0.0
  0
LINE
  8
SILK1
 10
1.1600
 20
1.0771
 30
0.0
 11
1.1771
 21
1.0771
 31
0.0
  0
LINE
  8
SILK1
 10
1.1771
 20
1.0771
 30
0.0
 11
1.1943
 21
1.0771
 31
0.0
  0
LINE
  8
SILK1
 10
1.1943
 20
1.0771
 30
0.0
 11
1.1943
 21
1.1000
 31
0.0
  0
LINE
  8
SILK1
 10
1.1771
 20
1.0771
 30
0.0
 11
1.1771
 21
1.0943
 31
0.0
  0
LINE
  8
SILK1
 10
1.1943
 20
1.1286
 30
0.0
 11
1.1600
 21
1.1286
 31
0.0
  0
LINE
  8
SILK1
 10
1.1600
 20
1.1286
 30
0.0
 11
1.1800
 21
1.1114
 31
0.0
  0
LINE
  8
SILK1
 10
1.1800
 20
1.1114
 30
0.0
 11
1.1800
 21
1.1343
 31
0.0
  0
LINE
  8
SILK1
 10
1.0655
 20
1.0155
 30
0.0
 11
1.0655
 21
0.9930
 31
0.0
  0
LINE
  8
SILK1
 10
1.0655
 20
1.0068
 30
0.0
 11
1.0717
 21
1.0130
 31
0.0
  0
LINE
  8
SILK1
 10
1.0717
 20
1.0130
 30
0.0
 11
1.0780
 21
1.0130
 31
0.0
  0
LINE
  8
SILK1
 10
1.0780
 20
1.0130
 30
0.0
 11
1.0842
 21
1.0068
 31
0.0
  0
LINE
  8
SILK1
 10
1.0842
 20
1.0068
 30
0.0
 11
1.0842
 21
0.9930
 31
0.0
  0
LINE
  8
SILK1
 10
1.0955
 20
0.9930
 30
0.0
 11
1.1155
 21
1.0230
 31
0.0
  0
LINE
  8
SILK1
 10
1.1455
 20
0.9930
 30
0.0
 11
1.1455
 21
1.0130
 31
0.0
  0
LINE
  8
SILK1
 10
1.1255
 20
0.9995
 30
0.0
 11
1.1273
 21
1.0057
 31
0.0
  0
LINE
  8
SILK1
 10
1.1273
 20
1.0057
 30
0.0
 11
1.1300
 21
1.0100
 31
0.0
  0
LINE
  8
SILK1
 10
1.1300
 20
1.0100
 30
0.0
 11
1.1335
 21
1.0123
 31
0.0
  0
LINE
  8
SILK1
 10
1.1335
 20
1.0123
 30
0.0
 11
1.1360
 21
1.0130
 31
0.0
  0
LINE
  8
SILK1
 10
1.1360
 20
1.0130
 30
0.0
 11
1.1380
 21
1.0130
 31
0.0
  0
LINE
  8
SILK1
 10
1.1380
 20
1.0130
 30
0.0
 11
1.1415
 21
1.0130
 31
0.0
  0
LINE
  8
SILK1
 10
1.1415
 20
1.0130
 30
0.0
 11
1.1455
 21
1.0110
 31
0.0
  0
LINE
  8
SILK1
 10
1.1255
 20
0.9992
 30
0.0
 11
1.1255
 21
0.9978
 31
0.0
  0
LINE
  8
SILK1
 10
1.1255
 20
0.9978
 30
0.0
 11
1.1258
 21
0.9968
 31
0.0
  0
LINE
  8
SILK1
 10
1.1258
 20
0.9968
 30
0.0
 11
1.1265
 21
0.9955
 31
0.0
  0
LINE
  8
SILK1
 10
1.1265
 20
0.9955
 30
0.0
 11
1.1282
 21
0.9945
 31
0.0
  0
LINE
  8
SILK1
 10
1.1282
 20
0.9945
 30
0.0
 11
1.1318
 21
0.9930
 31
0.0
  0
LINE
  8
SILK1
 10
1.1318
 20
0.9930
 30
0.0
 11
1.1373
 21
0.9930
 31
0.0
  0
LINE
  8
SILK1
 10
1.1373
 20
0.9930
 30
0.0
 11
1.1425
 21
0.9952
 31
0.0
  0
LINE
  8
SILK1
 10
1.1425
 20
0.9952
 30
0.0
 11
1.1455
 21
0.9980
 31
0.0
  0
LINE
  8
SILK1
 10
0.4843
 20
0.9107
 30
0.0
 11
0.4800
 21
0.9150
 31
0.0
  0
LINE
  8
SILK1
 10
0.4800
 20
0.9150
 30
0.0
 11
0.4714
 21
0.9150
 31
0.0
  0
LINE
  8
SILK1
 10
0.4714
 20
0.9150
 30
0.0
 11
0.4671
 21
0.9107
 31
0.0
  0
LINE
  8
SILK1
 10
0.4671
 20
0.9107
 30
0.0
 11
0.4671
 21
0.8936
 31
0.0
  0
LINE
  8
SILK1
 10
0.4671
 20
0.8936
 30
0.0
 11
0.4714
 21
0.8893
 31
0.0
  0
LINE
  8
SILK1
 10
0.4714
 20
0.8893
 30
0.0
 11
0.4800
 21
0.8893
 31
0.0
  0
LINE
  8
SILK1
 10
0.4800
 20
0.8893
 30
0.0
 11
0.4843
 21
0.8936
 31
0.0
  0
LINE
  8
SILK1
 10
0.4843
 20
0.8936
 30
0.0
 11
0.4843
 21
0.9000
 31
0.0
  0
LINE
  8
SILK1
 10
0.4843
 20
0.9000
 30
0.0
 11
0.4800
 21
0.9000
 31
0.0
  0
LINE
  8
SILK1
 10
0.5900
 20
0.8350
 30
0.0
 11
0.5850
 21
0.8400
 31
0.0
  0
LINE
  8
SILK1
 10
0.5850
 20
0.8400
 30
0.0
 11
0.6150
 21
0.8400
 31
0.0
  0
LINE
  8
SILK1
 10
0.6150
 20
0.8400
 30
0.0
 11
0.6150
 21
0.8450
 31
0.0
  0
LINE
  8
SILK1
 10
0.6150
 20
0.8400
 30
0.0
 11
0.6150
 21
0.8350
 31
0.0
  0
LINE
  8
SILK1
 10
0.5900
 20
0.8600
 30
0.0
 11
0.5850
 21
0.8650
 31
0.0
  0
LINE
  8
SILK1
 10
0.5850
 20
0.8650
 30
0.0
 11
0.5850
 21
0.8750
 31
0.0
  0
LINE
  8
SILK1
 10
0.5850
 20
0.8750
 30
0.0
 11
0.5900
 21
0.8800
 31
0.0
  0
LINE
  8
SILK1
 10
0.5900
 20
0.8800
 30
0.0
 11
0.5950
 21
0.8800
 31
0.0
  0
LINE
  8
SILK1
 10
0.5950
 20
0.8800
 30
0.0
 11
0.6000
 21
0.8750
 31
0.0
  0
LINE
  8
SILK1
 10
0.6000
 20
0.8750
 30
0.0
 11
0.6100
 21
0.8600
 31
0.0
  0
LINE
  8
SILK1
 10
0.6100
 20
0.8600
 30
0.0
 11
0.6150
 21
0.8600
 31
0.0
  0
LINE
  8
SILK1
 10
0.6150
 20
0.8600
 30
0.0
 11
0.6150
 21
0.8800
 31
0.0
  0
LINE
  8
SILK1
 10
0.5950
 20
0.8900
 30
0.0
 11
0.6150
 21
0.9000
 31
0.0
  0
LINE
  8
SILK1
 10
0.5950
 20
0.9100
 30
0.0
 11
0.6150
 21
0.9000
 31
0.0
  0
LINE
  8
SILK1
 10
0.6000
 20
0.9200
 30
0.0
 11
0.6000
 21
0.9400
 31
0.0
  0
LINE
  8
SILK1
 10
0.5900
 20
0.9300
 30
0.0
 11
0.6100
 21
0.9300
 31
0.0
  0
LINE
  8
SILK1
 10
0.8013
 20
0.8337
 30
0.0
 11
0.7712
 21
0.8438
 31
0.0
  0
LINE
  8
SILK1
 10
0.7712
 20
0.8438
 30
0.0
 11
0.7900
 21
0.8500
 31
0.0
  0
LINE
  8
SILK1
 10
0.7900
 20
0.8500
 30
0.0
 11
0.8013
 21
0.8538
 31
0.0
  0
LINE
  8
SILK1
 10
0.7900
 20
0.8500
 30
0.0
 11
0.7900
 21
0.8375
 31
0.0
  0
LINE
  8
SILK1
 10
0.8013
 20
0.8762
 30
0.0
 11
0.8013
 21
0.8700
 31
0.0
  0
LINE
  8
SILK1
 10
0.7987
 20
0.8638
 30
0.0
 11
0.8013
 21
0.8662
 31
0.0
  0
LINE
  8
SILK1
 10
0.8013
 20
0.8662
 30
0.0
 11
0.8013
 21
0.8800
 31
0.0
  0
LINE
  8
SILK1
 10
0.8013
 20
0.8800
 30
0.0
 11
0.7987
 21
0.8825
 31
0.0
  0
LINE
  8
SILK1
 10
0.7987
 20
0.8825
 30
0.0
 11
0.7937
 21
0.8825
 31
0.0
  0
LINE
  8
SILK1
 10
0.7937
 20
0.8825
 30
0.0
 11
0.7913
 21
0.8800
 31
0.0
  0
LINE
  8
SILK1
 10
0.7913
 20
0.8800
 30
0.0
 11
0.7913
 21
0.8662
 31
0.0
  0
LINE
  8
SILK1
 10
0.7913
 20
0.8662
 30
0.0
 11
0.7887
 21
0.8638
 31
0.0
  0
LINE
  8
SILK1
 10
0.7887
 20
0.8638
 30
0.0
 11
0.7837
 21
0.8638
 31
0.0
  0
LINE
  8
SILK1
 10
0.7837
 20
0.8638
 30
0.0
 11
0.7812
 21
0.8662
 31
0.0
  0
LINE
  8
SILK1
 10
0.7812
 20
0.8662
 30
0.0
 11
0.7812
 21
0.8800
 31
0.0
  0
LINE
  8
SILK1
 10
0.7812
 20
0.8800
 30
0.0
 11
0.7837
 21
0.8825
 31
0.0
  0
LINE
  8
SILK1
 10
0.7819
 20
0.9031
 30
0.0
 11
0.8013
 21
0.9031
 31
0.0
  0
LINE
  8
SILK1
 10
0.7738
 20
0.9031
 30
0.0
 11
0.7731
 21
0.9031
 31
0.0
  0
LINE
  8
SILK1
 10
0.7950
 20
0.9425
 30
0.0
 11
0.8013
 21
0.9363
 31
0.0
  0
LINE
  8
SILK1
 10
0.8013
 20
0.9363
 30
0.0
 11
0.8013
 21
0.9300
 31
0.0
  0
LINE
  8
SILK1
 10
0.8013
 20
0.9300
 30
0.0
 11
0.7950
 21
0.9237
 31
0.0
  0
LINE
  8
SILK1
 10
0.7950
 20
0.9237
 30
0.0
 11
0.7863
 21
0.9237
 31
0.0
  0
LINE
  8
SILK1
 10
0.7863
 20
0.9237
 30
0.0
 11
0.7812
 21
0.9300
 31
0.0
  0
LINE
  8
SILK1
 10
0.7812
 20
0.9300
 30
0.0
 11
0.7812
 21
0.9363
 31
0.0
  0
LINE
  8
SILK1
 10
0.7812
 20
0.9363
 30
0.0
 11
0.7875
 21
0.9425
 31
0.0
  0
LINE
  8
SILK1
 10
0.7875
 20
0.9425
 30
0.0
 11
0.8063
 21
0.9425
 31
0.0
  0
LINE
  8
SILK1
 10
0.8063
 20
0.9425
 30
0.0
 11
0.8125
 21
0.9363
 31
0.0
  0
LINE
  8
SILK1
 10
0.8125
 20
0.9363
 30
0.0
 11
0.8125
 21
0.9300
 31
0.0
  0
LINE
  8
SILK1
 10
0.8125
 20
0.9300
 30
0.0
 11
0.8087
 21
0.9237
 31
0.0
  0
LINE
  8
SILK1
 10
0.8500
 20
0.7100
 30
0.0
 11
0.8550
 21
0.7150
 31
0.0
  0
LINE
  8
SILK1
 10
0.8550
 20
0.7150
 30
0.0
 11
0.8550
 21
0.6850
 31
0.0
  0
LINE
  8
SILK1
 10
0.8550
 20
0.6850
 30
0.0
 11
0.8600
 21
0.6850
 31
0.0
  0
LINE
  8
SILK1
 10
0.8550
 20
0.6850
 30
0.0
 11
0.8500
 21
0.6850
 31
0.0
  0
LINE
  8
SILK1
 10
0.8750
 20
0.7100
 30
0.0
 11
0.8800
 21
0.7150
 31
0.0
  0
LINE
  8
SILK1
 10
0.8800
 20
0.7150
 30
0.0
 11
0.8900
 21
0.7150
 31
0.0
  0
LINE
  8
SILK1
 10
0.8900
 20
0.7150
 30
0.0
 11
0.8950
 21
0.7100
 31
0.0
  0
LINE
  8
SILK1
 10
0.8950
 20
0.7100
 30
0.0
 11
0.8950
 21
0.7050
 31
0.0
  0
LINE
  8
SILK1
 10
0.8950
 20
0.7050
 30
0.0
 11
0.8900
 21
0.7000
 31
0.0
  0
LINE
  8
SILK1
 10
0.8900
 20
0.7000
 30
0.0
 11
0.8750
 21
0.6900
 31
0.0
  0
LINE
  8
SILK1
 10
0.8750
 20
0.6900
 30
0.0
 11
0.8750
 21
0.6850
 31
0.0
  0
LINE
  8
SILK1
 10
0.8750
 20
0.6850
 30
0.0
 11
0.8950
 21
0.6850
 31
0.0
  0
LINE
  8
SILK1
 10
0.9050
 20
0.7050
 30
0.0
 11
0.9150
 21
0.6850
 31
0.0
  0
LINE
  8
SILK1
 10
0.9250
 20
0.7050
 30
0.0
 11
0.9150
 21
0.6850
 31
0.0
  0
LINE
  8
SILK1
 10
0.9350
 20
0.7000
 30
0.0
 11
0.9550
 21
0.7000
 31
0.0
  0
LINE
  8
SILK1
 10
0.9450
 20
0.7100
 30
0.0
 11
0.9450
 21
0.6900
 31
0.0
  0
LINE
  8
SILK1
 10
0.5775
 20
0.4500
 30
0.0
 11
0.6000
 21
0.4500
 31
0.0
  0
LINE
  8
SILK1
 10
0.5837
 20
0.4688
 30
0.0
 11
0.5800
 21
0.4625
 31
0.0
  0
LINE
  8
SILK1
 10
0.5800
 20
0.4625
 30
0.0
 11
0.5800
 21
0.4562
 31
0.0
  0
LINE
  8
SILK1
 10
0.5800
 20
0.4562
 30
0.0
 11
0.5837
 21
0.4500
 31
0.0
  0
LINE
  8
SILK1
 10
0.6000
 20
0.5000
 30
0.0
 11
0.5800
 21
0.5000
 31
0.0
  0
LINE
  8
SILK1
 10
0.5935
 20
0.4800
 30
0.0
 11
0.5873
 21
0.4818
 31
0.0
  0
LINE
  8
SILK1
 10
0.5873
 20
0.4818
 30
0.0
 11
0.5830
 21
0.4845
 31
0.0
  0
LINE
  8
SILK1
 10
0.5830
 20
0.4845
 30
0.0
 11
0.5807
 21
0.4880
 31
0.0
  0
LINE
  8
SILK1
 10
0.5807
 20
0.4880
 30
0.0
 11
0.5800
 21
0.4905
 31
0.0
  0
LINE
  8
SILK1
 10
0.5800
 20
0.4905
 30
0.0
 11
0.5800
 21
0.4925
 31
0.0
  0
LINE
  8
SILK1
 10
0.5800
 20
0.4925
 30
0.0
 11
0.5800
 21
0.4960
 31
0.0
  0
LINE
  8
SILK1
 10
0.5800
 20
0.4960
 30
0.0
 11
0.5820
 21
0.5000
 31
0.0
  0
LINE
  8
SILK1
 10
0.5938
 20
0.4800
 30
0.0
 11
0.5952
 21
0.4800
 31
0.0
  0
LINE
  8
SILK1
 10
0.5952
 20
0.4800
 30
0.0
 11
0.5962
 21
0.4803
 31
0.0
  0
LINE
  8
SILK1
 10
0.5962
 20
0.4803
 30
0.0
 11
0.5975
 21
0.4810
 31
0.0
  0
LINE
  8
SILK1
 10
0.5975
 20
0.4810
 30
0.0
 11
0.5985
 21
0.4828
 31
0.0
  0
LINE
  8
SILK1
 10
0.5985
 20
0.4828
 30
0.0
 11
0.6000
 21
0.4863
 31
0.0
  0
LINE
  8
SILK1
 10
0.6000
 20
0.4863
 30
0.0
 11
0.6000
 21
0.4918
 31
0.0
  0
LINE
  8
SILK1
 10
0.6000
 20
0.4918
 30
0.0
 11
0.5978
 21
0.4970
 31
0.0
  0
LINE
  8
SILK1
 10
0.5978
 20
0.4970
 30
0.0
 11
0.5950
 21
0.5000
 31
0.0
  0
LINE
  8
SILK1
 10
0.5800
 20
0.5100
 30
0.0
 11
0.5950
 21
0.5100
 31
0.0
  0
LINE
  8
SILK1
 10
0.5950
 20
0.5100
 30
0.0
 11
0.6000
 21
0.5138
 31
0.0
  0
LINE
  8
SILK1
 10
0.6000
 20
0.5138
 30
0.0
 11
0.6000
 21
0.5162
 31
0.0
  0
LINE
  8
SILK1
 10
0.6000
 20
0.5162
 30
0.0
 11
0.5950
 21
0.5200
 31
0.0
  0
LINE
  8
SILK1
 10
0.5950
 20
0.5200
 30
0.0
 11
0.6000
 21
0.5238
 31
0.0
  0
LINE
  8
SILK1
 10
0.6000
 20
0.5238
 30
0.0
 11
0.6000
 21
0.5262
 31
0.0
  0
LINE
  8
SILK1
 10
0.6000
 20
0.5262
 30
0.0
 11
0.5950
 21
0.5300
 31
0.0
  0
LINE
  8
SILK1
 10
0.5950
 20
0.5300
 30
0.0
 11
0.5800
 21
0.5300
 31
0.0
  0
LINE
  8
SILK1
 10
0.5950
 20
0.5200
 30
0.0
 11
0.5837
 21
0.5200
 31
0.0
  0
LINE
  8
SILK1
 10
0.5850
 20
0.5400
 30
0.0
 11
0.5850
 21
0.5600
 31
0.0
  0
LINE
  8
SILK1
 10
0.5750
 20
0.5500
 30
0.0
 11
0.5950
 21
0.5500
 31
0.0
  0
LINE
  8
SILK1
 10
0.4900
 20
0.1000
 30
0.0
 11
0.4900
 21
0.0688
 31
0.0
  0
LINE
  8
SILK1
 10
0.4900
 20
0.0862
 30
0.0
 11
0.4963
 21
0.0800
 31
0.0
  0
LINE
  8
SILK1
 10
0.4963
 20
0.0800
 30
0.0
 11
0.5025
 21
0.0800
 31
0.0
  0
LINE
  8
SILK1
 10
0.5025
 20
0.0800
 30
0.0
 11
0.5088
 21
0.0862
 31
0.0
  0
LINE
  8
SILK1
 10
0.5088
 20
0.0862
 30
0.0
 11
0.5088
 21
0.0938
 31
0.0
  0
LINE
  8
SILK1
 10
0.5088
 20
0.0938
 30
0.0
 11
0.5025
 21
0.1000
 31
0.0
  0
LINE
  8
SILK1
 10
0.5025
 20
0.1000
 30
0.0
 11
0.4963
 21
0.1000
 31
0.0
  0
LINE
  8
SILK1
 10
0.4963
 20
0.1000
 30
0.0
 11
0.4900
 21
0.0950
 31
0.0
  0
LINE
  8
SILK1
 10
0.5200
 20
0.0862
 30
0.0
 11
0.5200
 21
0.0938
 31
0.0
  0
LINE
  8
SILK1
 10
0.5200
 20
0.0938
 30
0.0
 11
0.5262
 21
0.1000
 31
0.0
  0
LINE
  8
SILK1
 10
0.5262
 20
0.1000
 30
0.0
 11
0.5325
 21
0.1000
 31
0.0
  0
LINE
  8
SILK1
 10
0.5325
 20
0.1000
 30
0.0
 11
0.5387
 21
0.0938
 31
0.0
  0
LINE
  8
SILK1
 10
0.5387
 20
0.0938
 30
0.0
 11
0.5387
 21
0.0862
 31
0.0
  0
LINE
  8
SILK1
 10
0.5387
 20
0.0862
 30
0.0
 11
0.5325
 21
0.0800
 31
0.0
  0
LINE
  8
SILK1
 10
0.5325
 20
0.0800
 30
0.0
 11
0.5262
 21
0.0800
 31
0.0
  0
LINE
  8
SILK1
 10
0.5262
 20
0.0800
 30
0.0
 11
0.5200
 21
0.0862
 31
0.0
  0
LINE
  8
SILK1
 10
0.5500
 20
0.1000
 30
0.0
 11
0.5500
 21
0.0850
 31
0.0
  0
LINE
  8
SILK1
 10
0.5500
 20
0.0850
 30
0.0
 11
0.5537
 21
0.0800
 31
0.0
  0
LINE
  8
SILK1
 10
0.5537
 20
0.0800
 30
0.0
 11
0.5563
 21
0.0800
 31
0.0
  0
LINE
  8
SILK1
 10
0.5563
 20
0.0800
 30
0.0
 11
0.5600
 21
0.0850
 31
0.0
  0
LINE
  8
SILK1
 10
0.5600
 20
0.0850
 30
0.0
 11
0.5637
 21
0.0800
 31
0.0
  0
LINE
  8
SILK1
 10
0.5637
 20
0.0800
 30
0.0
 11
0.5663
 21
0.0800
 31
0.0
  0
LINE
  8
SILK1
 10
0.5663
 20
0.0800
 30
0.0
 11
0.5700
 21
0.0850
 31
0.0
  0
LINE
  8
SILK1
 10
0.5700
 20
0.0850
 30
0.0
 11
0.5700
 21
0.1000
 31
0.0
  0
LINE
  8
SILK1
 10
0.5600
 20
0.0850
 30
0.0
 11
0.5600
 21
0.0963
 31
0.0
  0
LINE
  8
SILK1
 10
0.5800
 20
0.0912
 30
0.0
 11
0.5988
 21
0.0912
 31
0.0
  0
LINE
  8
SILK1
 10
0.5988
 20
0.0912
 30
0.0
 11
0.5988
 21
0.0938
 31
0.0
  0
LINE
  8
SILK1
 10
0.5988
 20
0.0938
 30
0.0
 11
0.5925
 21
0.1000
 31
0.0
  0
LINE
  8
SILK1
 10
0.5925
 20
0.1000
 30
0.0
 11
0.5863
 21
0.1000
 31
0.0
  0
LINE
  8
SILK1
 10
0.5863
 20
0.1000
 30
0.0
 11
0.5800
 21
0.0950
 31
0.0
  0
LINE
  8
SILK1
 10
0.5800
 20
0.0950
 30
0.0
 11
0.5800
 21
0.0862
 31
0.0
  0
LINE
  8
SILK1
 10
0.5800
 20
0.0862
 30
0.0
 11
0.5800
 21
0.0850
 31
0.0
  0
LINE
  8
SILK1
 10
0.5800
 20
0.0850
 30
0.0
 11
0.5850
 21
0.0800
 31
0.0
  0
LINE
  8
SILK1
 10
0.5850
 20
0.0800
 30
0.0
 11
0.5950
 21
0.0800
 31
0.0
  0
LINE
  8
SILK1
 10
0.5950
 20
0.0800
 30
0.0
 11
0.5988
 21
0.0825
 31
0.0
  0
LINE
  8
SILK1
 10
0.6100
 20
0.1025
 30
0.0
 11
0.6100
 21
0.0800
 31
0.0
  0
LINE
  8
SILK1
 10
0.6288
 20
0.0963
 30
0.0
 11
0.6225
 21
0.1000
 31
0.0
  0
LINE
  8
SILK1
 10
0.6225
 20
0.1000
 30
0.0
 11
0.6162
 21
0.1000
 31
0.0
  0
LINE
  8
SILK1
 10
0.6162
 20
0.1000
 30
0.0
 11
0.6100
 21
0.0963
 31
0.0
  0
LINE
  8
SILK1
 10
0.6794
 20
0.0994
 30
0.0
 11
0.6794
 21
0.0800
 31
0.0
  0
LINE
  8
SILK1
 10
0.6794
 20
0.1075
 30
0.0
 11
0.6794
 21
0.1081
 31
0.0
  0
LINE
  8
SILK1
 10
0.7000
 20
0.1025
 30
0.0
 11
0.7000
 21
0.0800
 31
0.0
  0
LINE
  8
SILK1
 10
0.7000
 20
0.0938
 30
0.0
 11
0.7063
 21
0.1000
 31
0.0
  0
LINE
  8
SILK1
 10
0.7063
 20
0.1000
 30
0.0
 11
0.7125
 21
0.1000
 31
0.0
  0
LINE
  8
SILK1
 10
0.7125
 20
0.1000
 30
0.0
 11
0.7188
 21
0.0938
 31
0.0
  0
LINE
  8
SILK1
 10
0.7188
 20
0.0938
 30
0.0
 11
0.7188
 21
0.0800
 31
0.0
  0
LINE
  8
SILK1
 10
0.7300
 20
0.1000
 30
0.0
 11
0.7300
 21
0.0688
 31
0.0
  0
LINE
  8
SILK1
 10
0.7300
 20
0.0862
 30
0.0
 11
0.7362
 21
0.0800
 31
0.0
  0
LINE
  8
SILK1
 10
0.7362
 20
0.0800
 30
0.0
 11
0.7425
 21
0.0800
 31
0.0
  0
LINE
  8
SILK1
 10
0.7425
 20
0.0800
 30
0.0
 11
0.7488
 21
0.0862
 31
0.0
  0
LINE
  8
SILK1
 10
0.7488
 20
0.0862
 30
0.0
 11
0.7488
 21
0.0938
 31
0.0
  0
LINE
  8
SILK1
 10
0.7488
 20
0.0938
 30
0.0
 11
0.7425
 21
0.1000
 31
0.0
  0
LINE
  8
SILK1
 10
0.7425
 20
0.1000
 30
0.0
 11
0.7362
 21
0.1000
 31
0.0
  0
LINE
  8
SILK1
 10
0.7362
 20
0.1000
 30
0.0
 11
0.7300
 21
0.0950
 31
0.0
  0
LINE
  8
SILK1
 10
0.7788
 20
0.1000
 30
0.0
 11
0.7788
 21
0.0800
 31
0.0
  0
LINE
  8
SILK1
 10
0.7788
 20
0.0850
 30
0.0
 11
0.7738
 21
0.0800
 31
0.0
  0
LINE
  8
SILK1
 10
0.7738
 20
0.0800
 30
0.0
 11
0.7650
 21
0.0800
 31
0.0
  0
LINE
  8
SILK1
 10
0.7650
 20
0.0800
 30
0.0
 11
0.7600
 21
0.0850
 31
0.0
  0
LINE
  8
SILK1
 10
0.7600
 20
0.0850
 30
0.0
 11
0.7600
 21
0.1000
 31
0.0
  0
LINE
  8
SILK1
 10
0.7950
 20
0.1050
 30
0.0
 11
0.7950
 21
0.0825
 31
0.0
  0
LINE
  8
SILK1
 10
0.7950
 20
0.0825
 30
0.0
 11
0.7975
 21
0.0800
 31
0.0
  0
LINE
  8
SILK1
 10
0.7975
 20
0.0800
 30
0.0
 11
0.8013
 21
0.0800
 31
0.0
  0
LINE
  8
SILK1
 10
0.8013
 20
0.0800
 30
0.0
 11
0.8037
 21
0.0825
 31
0.0
  0
LINE
  8
SILK1
 10
0.7900
 20
0.1000
 30
0.0
 11
0.8000
 21
0.1000
 31
0.0
  0
LINE
  8
SILK1
 10
0.9371
 20
0.9100
 30
0.0
 11
0.9329
 21
0.9143
 31
0.0
  0
LINE
  8
SILK1
 10
0.9329
 20
0.9143
 30
0.0
 11
0.9243
 21
0.9143
 31
0.0
  0
LINE
  8
SILK1
 10
0.9243
 20
0.9143
 30
0.0
 11
0.9200
 21
0.9100
 31
0.0
  0
LINE
  8
SILK1
 10
0.9200
 20
0.9100
 30
0.0
 11
0.9200
 21
0.8929
 31
0.0
  0
LINE
  8
SILK1
 10
0.9200
 20
0.8929
 30
0.0
 11
0.9243
 21
0.8886
 31
0.0
  0
LINE
  8
SILK1
 10
0.9243
 20
0.8886
 30
0.0
 11
0.9329
 21
0.8886
 31
0.0
  0
LINE
  8
SILK1
 10
0.9329
 20
0.8886
 30
0.0
 11
0.9371
 21
0.8929
 31
0.0
  0
LINE
  8
SILK1
 10
0.9371
 20
0.8929
 30
0.0
 11
0.9371
 21
0.8993
 31
0.0
  0
LINE
  8
SILK1
 10
0.9371
 20
0.8993
 30
0.0
 11
0.9329
 21
0.8993
 31
0.0
  0
LINE
  8
SILK1
 10
0.6700
 20
0.4500
 30
0.0
 11
0.7000
 21
0.4600
 31
0.0
  0
LINE
  8
SILK1
 10
0.7000
 20
0.4600
 30
0.0
 11
0.6700
 21
0.4700
 31
0.0
  0
LINE
  8
SILK1
 10
0.7000
 20
0.4925
 30
0.0
 11
0.7000
 21
0.4863
 31
0.0
  0
LINE
  8
SILK1
 10
0.6975
 20
0.4800
 30
0.0
 11
0.7000
 21
0.4825
 31
0.0
  0
LINE
  8
SILK1
 10
0.7000
 20
0.4825
 30
0.0
 11
0.7000
 21
0.4963
 31
0.0
  0
LINE
  8
SILK1
 10
0.7000
 20
0.4963
 30
0.0
 11
0.6975
 21
0.4988
 31
0.0
  0
LINE
  8
SILK1
 10
0.6975
 20
0.4988
 30
0.0
 11
0.6925
 21
0.4988
 31
0.0
  0
LINE
  8
SILK1
 10
0.6925
 20
0.4988
 30
0.0
 11
0.6900
 21
0.4963
 31
0.0
  0
LINE
  8
SILK1
 10
0.6900
 20
0.4963
 30
0.0
 11
0.6900
 21
0.4825
 31
0.0
  0
LINE
  8
SILK1
 10
0.6900
 20
0.4825
 30
0.0
 11
0.6875
 21
0.4800
 31
0.0
  0
LINE
  8
SILK1
 10
0.6875
 20
0.4800
 30
0.0
 11
0.6825
 21
0.4800
 31
0.0
  0
LINE
  8
SILK1
 10
0.6825
 20
0.4800
 30
0.0
 11
0.6800
 21
0.4825
 31
0.0
  0
LINE
  8
SILK1
 10
0.6800
 20
0.4825
 30
0.0
 11
0.6800
 21
0.4963
 31
0.0
  0
LINE
  8
SILK1
 10
0.6800
 20
0.4963
 30
0.0
 11
0.6825
 21
0.4988
 31
0.0
  0
LINE
  8
SILK1
 10
0.6806
 20
0.5194
 30
0.0
 11
0.7000
 21
0.5194
 31
0.0
  0
LINE
  8
SILK1
 10
0.6725
 20
0.5194
 30
0.0
 11
0.6719
 21
0.5194
 31
0.0
  0
LINE
  8
SILK1
 10
0.6937
 20
0.5587
 30
0.0
 11
0.7000
 21
0.5525
 31
0.0
  0
LINE
  8
SILK1
 10
0.7000
 20
0.5525
 30
0.0
 11
0.7000
 21
0.5463
 31
0.0
  0
LINE
  8
SILK1
 10
0.7000
 20
0.5463
 30
0.0
 11
0.6937
 21
0.5400
 31
0.0
  0
LINE
  8
SILK1
 10
0.6937
 20
0.5400
 30
0.0
 11
0.6850
 21
0.5400
 31
0.0
  0
LINE
  8
SILK1
 10
0.6850
 20
0.5400
 30
0.0
 11
0.6800
 21
0.5463
 31
0.0
  0
LINE
  8
SILK1
 10
0.6800
 20
0.5463
 30
0.0
 11
0.6800
 21
0.5525
 31
0.0
  0
LINE
  8
SILK1
 10
0.6800
 20
0.5525
 30
0.0
 11
0.6863
 21
0.5587
 31
0.0
  0
LINE
  8
SILK1
 10
0.6863
 20
0.5587
 30
0.0
 11
0.7050
 21
0.5587
 31
0.0
  0
LINE
  8
SILK1
 10
0.7050
 20
0.5587
 30
0.0
 11
0.7113
 21
0.5525
 31
0.0
  0
LINE
  8
SILK1
 10
0.7113
 20
0.5525
 30
0.0
 11
0.7113
 21
0.5463
 31
0.0
  0
LINE
  8
SILK1
 10
0.7113
 20
0.5463
 30
0.0
 11
0.7075
 21
0.5400
 31
0.0
  0
LINE
  8
SILK1
 10
0.3471
 20
1.1071
 30
0.0
 11
0.3471
 21
1.1300
 31
0.0
  0
LINE
  8
SILK1
 10
0.3471
 20
1.1300
 30
0.0
 11
0.3300
 21
1.1300
 31
0.0
  0
LINE
  8
SILK1
 10
0.3300
 20
1.1300
 30
0.0
 11
0.3129
 21
1.1300
 31
0.0
  0
LINE
  8
SILK1
 10
0.3129
 20
1.1300
 30
0.0
 11
0.3129
 21
1.1071
 31
0.0
  0
LINE
  8
SILK1
 10
0.3300
 20
1.1300
 30
0.0
 11
0.3300
 21
1.1129
 31
0.0
  0
LINE
  8
SILK1
 10
0.3129
 20
1.0786
 30
0.0
 11
0.3471
 21
1.0786
 31
0.0
  0
LINE
  8
SILK1
 10
0.3471
 20
1.0786
 30
0.0
 11
0.3271
 21
1.0957
 31
0.0
  0
LINE
  8
SILK1
 10
0.3271
 20
1.0957
 30
0.0
 11
0.3271
 21
1.0729
 31
0.0
  0
LINE
  8
SILK1
 10
1.0071
 20
0.2400
 30
0.0
 11
1.0029
 21
0.2443
 31
0.0
  0
LINE
  8
SILK1
 10
1.0029
 20
0.2443
 30
0.0
 11
0.9943
 21
0.2443
 31
0.0
  0
LINE
  8
SILK1
 10
0.9943
 20
0.2443
 30
0.0
 11
0.9900
 21
0.2400
 31
0.0
  0
LINE
  8
SILK1
 10
0.9900
 20
0.2400
 30
0.0
 11
0.9900
 21
0.2229
 31
0.0
  0
LINE
  8
SILK1
 10
0.9900
 20
0.2229
 30
0.0
 11
0.9943
 21
0.2186
 31
0.0
  0
LINE
  8
SILK1
 10
0.9943
 20
0.2186
 30
0.0
 11
1.0029
 21
0.2186
 31
0.0
  0
LINE
  8
SILK1
 10
1.0029
 20
0.2186
 30
0.0
 11
1.0071
 21
0.2229
 31
0.0
  0
LINE
  8
SILK1
 10
1.0071
 20
0.2229
 30
0.0
 11
1.0071
 21
0.2293
 31
0.0
  0
LINE
  8
SILK1
 10
1.0071
 20
0.2293
 30
0.0
 11
1.0029
 21
0.2293
 31
0.0
  0
LINE
  8
SILK1
 10
1.1614
 20
0.8986
 30
0.0
 11
1.1614
 21
0.8757
 31
0.0
  0
LINE
  8
SILK1
 10
1.1614
 20
0.8757
 30
0.0
 11
1.1786
 21
0.8757
 31
0.0
  0
LINE
  8
SILK1
 10
1.1786
 20
0.8757
 30
0.0
 11
1.1957
 21
0.8757
 31
0.0
  0
LINE
  8
SILK1
 10
1.1957
 20
0.8757
 30
0.0
 11
1.1957
 21
0.8986
 31
0.0
  0
LINE
  8
SILK1
 10
1.1786
 20
0.8757
 30
0.0
 11
1.1786
 21
0.8929
 31
0.0
  0
LINE
  8
SILK1
 10
1.1671
 20
0.9100
 30
0.0
 11
1.1614
 21
0.9157
 31
0.0
  0
LINE
  8
SILK1
 10
1.1614
 20
0.9157
 30
0.0
 11
1.1614
 21
0.9271
 31
0.0
  0
LINE
  8
SILK1
 10
1.1614
 20
0.9271
 30
0.0
 11
1.1671
 21
0.9329
 31
0.0
  0
LINE
  8
SILK1
 10
1.1671
 20
0.9329
 30
0.0
 11
1.1729
 21
0.9329
 31
0.0
  0
LINE
  8
SILK1
 10
1.1729
 20
0.9329
 30
0.0
 11
1.1786
 21
0.9271
 31
0.0
  0
LINE
  8
SILK1
 10
1.1786
 20
0.9271
 30
0.0
 11
1.1843
 21
0.9329
 31
0.0
  0
LINE
  8
SILK1
 10
1.1843
 20
0.9329
 30
0.0
 11
1.1900
 21
0.9329
 31
0.0
  0
LINE
  8
SILK1
 10
1.1900
 20
0.9329
 30
0.0
 11
1.1957
 21
0.9271
 31
0.0
  0
LINE
  8
SILK1
 10
1.1957
 20
0.9271
 30
0.0
 11
1.1957
 21
0.9157
 31
0.0
  0
LINE
  8
SILK1
 10
1.1957
 20
0.9157
 30
0.0
 11
1.1900
 21
0.9100
 31
0.0
  0
LINE
  8
SILK1
 10
1.1786
 20
0.9271
 30
0.0
 11
1.1786
 21
0.9214
 31
0.0
  0
LINE
  8
SILK1
 10
0.4900
 20
0.8150
 30
0.0
 11
0.4700
 21
0.8150
 31
0.0
  0
LINE
  8
SILK1
 10
0.4700
 20
0.8150
 30
0.0
 11
0.4700
 21
0.8000
 31
0.0
  0
LINE
  8
SILK1
 10
0.4700
 20
0.8000
 30
0.0
 11
0.4750
 21
0.8050
 31
0.0
  0
LINE
  8
SILK1
 10
0.4750
 20
0.8050
 30
0.0
 11
0.4850
 21
0.8050
 31
0.0
  0
LINE
  8
SILK1
 10
0.4850
 20
0.8050
 30
0.0
 11
0.4900
 21
0.8000
 31
0.0
  0
LINE
  8
SILK1
 10
0.4900
 20
0.8000
 30
0.0
 11
0.4900
 21
0.7900
 31
0.0
  0
LINE
  8
SILK1
 10
0.4900
 20
0.7900
 30
0.0
 11
0.4850
 21
0.7850
 31
0.0
  0
LINE
  8
SILK1
 10
0.4850
 20
0.7850
 30
0.0
 11
0.4750
 21
0.7850
 31
0.0
  0
LINE
  8
SILK1
 10
0.4750
 20
0.7850
 30
0.0
 11
0.4700
 21
0.7900
 31
0.0
  0
LINE
  8
SILK1
 10
0.5000
 20
0.8050
 30
0.0
 11
0.5100
 21
0.7850
 31
0.0
  0
LINE
  8
SILK1
 10
0.5200
 20
0.8050
 30
0.0
 11
0.5100
 21
0.7850
 31
0.0
  0
LINE
  8
SILK1
 10
0.5300
 20
0.8000
 30
0.0
 11
0.5500
 21
0.8000
 31
0.0
  0
LINE
  8
SILK1
 10
0.5400
 20
0.8100
 30
0.0
 11
0.5400
 21
0.7900
 31
0.0
  0
LINE
  8
SILK1
 10
1.0729
 20
0.5029
 30
0.0
 11
1.0729
 21
0.4800
 31
0.0
  0
LINE
  8
SILK1
 10
1.0729
 20
0.4800
 30
0.0
 11
1.0900
 21
0.4800
 31
0.0
  0
LINE
  8
SILK1
 10
1.0900
 20
0.4800
 30
0.0
 11
1.1071
 21
0.4800
 31
0.0
  0
LINE
  8
SILK1
 10
1.1071
 20
0.4800
 30
0.0
 11
1.1071
 21
0.5029
 31
0.0
  0
LINE
  8
SILK1
 10
1.0900
 20
0.4800
 30
0.0
 11
1.0900
 21
0.4971
 31
0.0
  0
LINE
  8
SILK1
 10
1.0786
 20
0.5200
 30
0.0
 11
1.0729
 21
0.5257
 31
0.0
  0
LINE
  8
SILK1
 10
1.0729
 20
0.5257
 30
0.0
 11
1.1071
 21
0.5257
 31
0.0
  0
LINE
  8
SILK1
 10
1.1071
 20
0.5257
 30
0.0
 11
1.1071
 21
0.5314
 31
0.0
  0
LINE
  8
SILK1
 10
1.1071
 20
0.5257
 30
0.0
 11
1.1071
 21
0.5200
 31
0.0
  0
LINE
  8
SILK1
 10
0.5043
 20
0.2407
 30
0.0
 11
0.5000
 21
0.2450
 31
0.0
  0
LINE
  8
SILK1
 10
0.5000
 20
0.2450
 30
0.0
 11
0.4914
 21
0.2450
 31
0.0
  0
LINE
  8
SILK1
 10
0.4914
 20
0.2450
 30
0.0
 11
0.4871
 21
0.2407
 31
0.0
  0
LINE
  8
SILK1
 10
0.4871
 20
0.2407
 30
0.0
 11
0.4871
 21
0.2236
 31
0.0
  0
LINE
  8
SILK1
 10
0.4871
 20
0.2236
 30
0.0
 11
0.4914
 21
0.2193
 31
0.0
  0
LINE
  8
SILK1
 10
0.4914
 20
0.2193
 30
0.0
 11
0.5000
 21
0.2193
 31
0.0
  0
LINE
  8
SILK1
 10
0.5000
 20
0.2193
 30
0.0
 11
0.5043
 21
0.2236
 31
0.0
  0
LINE
  8
SILK1
 10
0.5043
 20
0.2236
 30
0.0
 11
0.5043
 21
0.2300
 31
0.0
  0
LINE
  8
SILK1
 10
0.5043
 20
0.2300
 30
0.0
 11
0.5000
 21
0.2300
 31
0.0
  0
LINE
  8
SILK1
 10
1.2537
 20
0.2591
 30
0.0
 11
1.2794
 21
0.2591
 31
0.0
  0
LINE
  8
SILK1
 10
1.2609
 20
0.2806
 30
0.0
 11
1.2566
 21
0.2734
 31
0.0
  0
LINE
  8
SILK1
 10
1.2566
 20
0.2734
 30
0.0
 11
1.2566
 21
0.2663
 31
0.0
  0
LINE
  8
SILK1
 10
1.2566
 20
0.2663
 30
0.0
 11
1.2609
 21
0.2591
 31
0.0
  0
LINE
  8
SILK1
 10
1.2723
 20
0.2934
 30
0.0
 11
1.2637
 21
0.2934
 31
0.0
  0
LINE
  8
SILK1
 10
1.2637
 20
0.2934
 30
0.0
 11
1.2566
 21
0.3006
 31
0.0
  0
LINE
  8
SILK1
 10
1.2566
 20
0.3006
 30
0.0
 11
1.2566
 21
0.3077
 31
0.0
  0
LINE
  8
SILK1
 10
1.2566
 20
0.3077
 30
0.0
 11
1.2637
 21
0.3149
 31
0.0
  0
LINE
  8
SILK1
 10
1.2637
 20
0.3149
 30
0.0
 11
1.2723
 21
0.3149
 31
0.0
  0
LINE
  8
SILK1
 10
1.2723
 20
0.3149
 30
0.0
 11
1.2794
 21
0.3077
 31
0.0
  0
LINE
  8
SILK1
 10
1.2794
 20
0.3077
 30
0.0
 11
1.2794
 21
0.3006
 31
0.0
  0
LINE
  8
SILK1
 10
1.2794
 20
0.3006
 30
0.0
 11
1.2723
 21
0.2934
 31
0.0
  0
LINE
  8
SILK1
 10
1.2509
 20
0.3334
 30
0.0
 11
1.2766
 21
0.3334
 31
0.0
  0
LINE
  8
SILK1
 10
1.2766
 20
0.3334
 30
0.0
 11
1.2794
 21
0.3363
 31
0.0
  0
LINE
  8
SILK1
 10
1.2794
 20
0.3363
 30
0.0
 11
1.2794
 21
0.3406
 31
0.0
  0
LINE
  8
SILK1
 10
1.2794
 20
0.3406
 30
0.0
 11
1.2766
 21
0.3434
 31
0.0
  0
LINE
  8
SILK1
 10
1.2566
 20
0.3277
 30
0.0
 11
1.2566
 21
0.3391
 31
0.0
  0
LINE
  8
SILK1
 10
1.2723
 20
0.3620
 30
0.0
 11
1.2637
 21
0.3620
 31
0.0
  0
LINE
  8
SILK1
 10
1.2637
 20
0.3620
 30
0.0
 11
1.2566
 21
0.3691
 31
0.0
  0
LINE
  8
SILK1
 10
1.2566
 20
0.3691
 30
0.0
 11
1.2566
 21
0.3763
 31
0.0
  0
LINE
  8
SILK1
 10
1.2566
 20
0.3763
 30
0.0
 11
1.2637
 21
0.3834
 31
0.0
  0
LINE
  8
SILK1
 10
1.2637
 20
0.3834
 30
0.0
 11
1.2723
 21
0.3834
 31
0.0
  0
LINE
  8
SILK1
 10
1.2723
 20
0.3834
 30
0.0
 11
1.2794
 21
0.3763
 31
0.0
  0
LINE
  8
SILK1
 10
1.2794
 20
0.3763
 30
0.0
 11
1.2794
 21
0.3691
 31
0.0
  0
LINE
  8
SILK1
 10
1.2794
 20
0.3691
 30
0.0
 11
1.2723
 21
0.3620
 31
0.0
  0
LINE
  8
SILK1
 10
1.2537
 20
0.3963
 30
0.0
 11
1.2794
 21
0.3963
 31
0.0
  0
LINE
  8
SILK1
 10
1.2609
 20
0.4177
 30
0.0
 11
1.2566
 21
0.4106
 31
0.0
  0
LINE
  8
SILK1
 10
1.2566
 20
0.4106
 30
0.0
 11
1.2566
 21
0.4034
 31
0.0
  0
LINE
  8
SILK1
 10
1.2566
 20
0.4034
 30
0.0
 11
1.2609
 21
0.3963
 31
0.0
  0
LINE
  8
SILK1
 10
1.2723
 20
0.4520
 30
0.0
 11
1.2794
 21
0.4449
 31
0.0
  0
LINE
  8
SILK1
 10
1.2794
 20
0.4449
 30
0.0
 11
1.2794
 21
0.4377
 31
0.0
  0
LINE
  8
SILK1
 10
1.2794
 20
0.4377
 30
0.0
 11
1.2723
 21
0.4306
 31
0.0
  0
LINE
  8
SILK1
 10
1.2723
 20
0.4306
 30
0.0
 11
1.2623
 21
0.4306
 31
0.0
  0
LINE
  8
SILK1
 10
1.2623
 20
0.4306
 30
0.0
 11
1.2566
 21
0.4377
 31
0.0
  0
LINE
  8
SILK1
 10
1.2566
 20
0.4377
 30
0.0
 11
1.2566
 21
0.4449
 31
0.0
  0
LINE
  8
SILK1
 10
1.2566
 20
0.4449
 30
0.0
 11
1.2637
 21
0.4520
 31
0.0
  0
LINE
  8
SILK1
 10
1.2637
 20
0.4520
 30
0.0
 11
1.2851
 21
0.4520
 31
0.0
  0
LINE
  8
SILK1
 10
1.2851
 20
0.4520
 30
0.0
 11
1.2923
 21
0.4449
 31
0.0
  0
LINE
  8
SILK1
 10
1.2923
 20
0.4449
 30
0.0
 11
1.2923
 21
0.4377
 31
0.0
  0
LINE
  8
SILK1
 10
1.2923
 20
0.4377
 30
0.0
 11
1.2880
 21
0.4306
 31
0.0
  0
LINE
  8
SILK1
 10
1.2794
 20
0.4877
 30
0.0
 11
1.2566
 21
0.4877
 31
0.0
  0
LINE
  8
SILK1
 10
1.2720
 20
0.4649
 30
0.0
 11
1.2649
 21
0.4669
 31
0.0
  0
LINE
  8
SILK1
 10
1.2649
 20
0.4669
 30
0.0
 11
1.2600
 21
0.4700
 31
0.0
  0
LINE
  8
SILK1
 10
1.2600
 20
0.4700
 30
0.0
 11
1.2574
 21
0.4740
 31
0.0
  0
LINE
  8
SILK1
 10
1.2574
 20
0.4740
 30
0.0
 11
1.2566
 21
0.4769
 31
0.0
  0
LINE
  8
SILK1
 10
1.2566
 20
0.4769
 30
0.0
 11
1.2566
 21
0.4791
 31
0.0
  0
LINE
  8
SILK1
 10
1.2566
 20
0.4791
 30
0.0
 11
1.2566
 21
0.4831
 31
0.0
  0
LINE
  8
SILK1
 10
1.2566
 20
0.4831
 30
0.0
 11
1.2589
 21
0.4877
 31
0.0
  0
LINE
  8
SILK1
 10
1.2723
 20
0.4649
 30
0.0
 11
1.2740
 21
0.4649
 31
0.0
  0
LINE
  8
SILK1
 10
1.2740
 20
0.4649
 30
0.0
 11
1.2751
 21
0.4651
 31
0.0
  0
LINE
  8
SILK1
 10
1.2751
 20
0.4651
 30
0.0
 11
1.2766
 21
0.4660
 31
0.0
  0
LINE
  8
SILK1
 10
1.2766
 20
0.4660
 30
0.0
 11
1.2777
 21
0.4680
 31
0.0
  0
LINE
  8
SILK1
 10
1.2777
 20
0.4680
 30
0.0
 11
1.2794
 21
0.4720
 31
0.0
  0
LINE
  8
SILK1
 10
1.2794
 20
0.4720
 30
0.0
 11
1.2794
 21
0.4783
 31
0.0
  0
LINE
  8
SILK1
 10
1.2794
 20
0.4783
 30
0.0
 11
1.2769
 21
0.4843
 31
0.0
  0
LINE
  8
SILK1
 10
1.2769
 20
0.4843
 30
0.0
 11
1.2737
 21
0.4877
 31
0.0
  0
LINE
  8
SILK1
 10
1.2537
 20
0.4991
 30
0.0
 11
1.2794
 21
0.4991
 31
0.0
  0
LINE
  8
SILK1
 10
1.2609
 20
0.5206
 30
0.0
 11
1.2566
 21
0.5134
 31
0.0
  0
LINE
  8
SILK1
 10
1.2566
 20
0.5134
 30
0.0
 11
1.2566
 21
0.5063
 31
0.0
  0
LINE
  8
SILK1
 10
1.2566
 20
0.5063
 30
0.0
 11
1.2609
 21
0.4991
 31
0.0
  0
LINE
  8
SILK1
 10
1.2794
 20
0.5563
 30
0.0
 11
1.2566
 21
0.5563
 31
0.0
  0
LINE
  8
SILK1
 10
1.2720
 20
0.5334
 30
0.0
 11
1.2649
 21
0.5354
 31
0.0
  0
LINE
  8
SILK1
 10
1.2649
 20
0.5354
 30
0.0
 11
1.2600
 21
0.5386
 31
0.0
  0
LINE
  8
SILK1
 10
1.2600
 20
0.5386
 30
0.0
 11
1.2574
 21
0.5426
 31
0.0
  0
LINE
  8
SILK1
 10
1.2574
 20
0.5426
 30
0.0
 11
1.2566
 21
0.5454
 31
0.0
  0
LINE
  8
SILK1
 10
1.2566
 20
0.5454
 30
0.0
 11
1.2566
 21
0.5477
 31
0.0
  0
LINE
  8
SILK1
 10
1.2566
 20
0.5477
 30
0.0
 11
1.2566
 21
0.5517
 31
0.0
  0
LINE
  8
SILK1
 10
1.2566
 20
0.5517
 30
0.0
 11
1.2589
 21
0.5563
 31
0.0
  0
LINE
  8
SILK1
 10
1.2723
 20
0.5334
 30
0.0
 11
1.2740
 21
0.5334
 31
0.0
  0
LINE
  8
SILK1
 10
1.2740
 20
0.5334
 30
0.0
 11
1.2751
 21
0.5337
 31
0.0
  0
LINE
  8
SILK1
 10
1.2751
 20
0.5337
 30
0.0
 11
1.2766
 21
0.5346
 31
0.0
  0
LINE
  8
SILK1
 10
1.2766
 20
0.5346
 30
0.0
 11
1.2777
 21
0.5366
 31
0.0
  0
LINE
  8
SILK1
 10
1.2777
 20
0.5366
 30
0.0
 11
1.2794
 21
0.5406
 31
0.0
  0
LINE
  8
SILK1
 10
1.2794
 20
0.5406
 30
0.0
 11
1.2794
 21
0.5469
 31
0.0
  0
LINE
  8
SILK1
 10
1.2794
 20
0.5469
 30
0.0
 11
1.2769
 21
0.5529
 31
0.0
  0
LINE
  8
SILK1
 10
1.2769
 20
0.5529
 30
0.0
 11
1.2737
 21
0.5563
 31
0.0
  0
LINE
  8
SILK1
 10
1.2723
 20
0.5891
 30
0.0
 11
1.2794
 21
0.5820
 31
0.0
  0
LINE
  8
SILK1
 10
1.2794
 20
0.5820
 30
0.0
 11
1.2794
 21
0.5749
 31
0.0
  0
LINE
  8
SILK1
 10
1.2794
 20
0.5749
 30
0.0
 11
1.2723
 21
0.5677
 31
0.0
  0
LINE
  8
SILK1
 10
1.2723
 20
0.5677
 30
0.0
 11
1.2623
 21
0.5677
 31
0.0
  0
LINE
  8
SILK1
 10
1.2623
 20
0.5677
 30
0.0
 11
1.2566
 21
0.5749
 31
0.0
  0
LINE
  8
SILK1
 10
1.2566
 20
0.5749
 30
0.0
 11
1.2566
 21
0.5820
 31
0.0
  0
LINE
  8
SILK1
 10
1.2566
 20
0.5820
 30
0.0
 11
1.2637
 21
0.5891
 31
0.0
  0
LINE
  8
SILK1
 10
1.2637
 20
0.5891
 30
0.0
 11
1.2851
 21
0.5891
 31
0.0
  0
LINE
  8
SILK1
 10
1.2851
 20
0.5891
 30
0.0
 11
1.2923
 21
0.5820
 31
0.0
  0
LINE
  8
SILK1
 10
1.2923
 20
0.5820
 30
0.0
 11
1.2923
 21
0.5749
 31
0.0
  0
LINE
  8
SILK1
 10
1.2923
 20
0.5749
 30
0.0
 11
1.2880
 21
0.5677
 31
0.0
  0
LINE
  8
SILK1
 10
1.2666
 20
0.6020
 30
0.0
 11
1.2666
 21
0.6234
 31
0.0
  0
LINE
  8
SILK1
 10
1.2666
 20
0.6234
 30
0.0
 11
1.2637
 21
0.6234
 31
0.0
  0
LINE
  8
SILK1
 10
1.2637
 20
0.6234
 30
0.0
 11
1.2566
 21
0.6163
 31
0.0
  0
LINE
  8
SILK1
 10
1.2566
 20
0.6163
 30
0.0
 11
1.2566
 21
0.6091
 31
0.0
  0
LINE
  8
SILK1
 10
1.2566
 20
0.6091
 30
0.0
 11
1.2623
 21
0.6020
 31
0.0
  0
LINE
  8
SILK1
 10
1.2623
 20
0.6020
 30
0.0
 11
1.2723
 21
0.6020
 31
0.0
  0
LINE
  8
SILK1
 10
1.2723
 20
0.6020
 30
0.0
 11
1.2737
 21
0.6020
 31
0.0
  0
LINE
  8
SILK1
 10
1.2737
 20
0.6020
 30
0.0
 11
1.2794
 21
0.6077
 31
0.0
  0
LINE
  8
SILK1
 10
1.2794
 20
0.6077
 30
0.0
 11
1.2794
 21
0.6191
 31
0.0
  0
LINE
  8
SILK1
 10
1.2794
 20
0.6191
 30
0.0
 11
1.2766
 21
0.6234
 31
0.0
  0
LINE
  8
SILK1
 10
1.2794
 20
0.6449
 30
0.0
 11
1.2794
 21
0.6477
 31
0.0
  0
LINE
  8
SILK1
 10
1.2794
 20
0.6477
 30
0.0
 11
1.2766
 21
0.6477
 31
0.0
  0
LINE
  8
SILK1
 10
1.2766
 20
0.6477
 30
0.0
 11
1.2766
 21
0.6449
 31
0.0
  0
LINE
  8
SILK1
 10
1.2766
 20
0.6449
 30
0.0
 11
1.2794
 21
0.6449
 31
0.0
  0
LINE
  8
SILK1
 10
1.2566
 20
0.6863
 30
0.0
 11
1.2594
 21
0.6863
 31
0.0
  0
LINE
  8
SILK1
 10
1.2594
 20
0.6863
 30
0.0
 11
1.2566
 21
0.6820
 31
0.0
  0
LINE
  8
SILK1
 10
1.2566
 20
0.6820
 30
0.0
 11
1.2566
 21
0.6806
 31
0.0
  0
LINE
  8
SILK1
 10
1.2566
 20
0.6806
 30
0.0
 11
1.2580
 21
0.6777
 31
0.0
  0
LINE
  8
SILK1
 10
1.2580
 20
0.6777
 30
0.0
 11
1.2623
 21
0.6734
 31
0.0
  0
LINE
  8
SILK1
 10
1.2623
 20
0.6734
 30
0.0
 11
1.2694
 21
0.6706
 31
0.0
  0
LINE
  8
SILK1
 10
1.2694
 20
0.6706
 30
0.0
 11
1.2723
 21
0.6706
 31
0.0
  0
LINE
  8
SILK1
 10
1.2723
 20
0.6706
 30
0.0
 11
1.2766
 21
0.6720
 31
0.0
  0
LINE
  8
SILK1
 10
1.2766
 20
0.6720
 30
0.0
 11
1.2794
 21
0.6777
 31
0.0
  0
LINE
  8
SILK1
 10
1.2794
 20
0.6777
 30
0.0
 11
1.2794
 21
0.6849
 31
0.0
  0
LINE
  8
SILK1
 10
1.2794
 20
0.6849
 30
0.0
 11
1.2751
 21
0.6920
 31
0.0
  0
LINE
  8
SILK1
 10
1.2723
 20
0.7049
 30
0.0
 11
1.2637
 21
0.7049
 31
0.0
  0
LINE
  8
SILK1
 10
1.2637
 20
0.7049
 30
0.0
 11
1.2566
 21
0.7120
 31
0.0
  0
LINE
  8
SILK1
 10
1.2566
 20
0.7120
 30
0.0
 11
1.2566
 21
0.7191
 31
0.0
  0
LINE
  8
SILK1
 10
1.2566
 20
0.7191
 30
0.0
 11
1.2637
 21
0.7263
 31
0.0
  0
LINE
  8
SILK1
 10
1.2637
 20
0.7263
 30
0.0
 11
1.2723
 21
0.7263
 31
0.0
  0
LINE
  8
SILK1
 10
1.2723
 20
0.7263
 30
0.0
 11
1.2794
 21
0.7191
 31
0.0
  0
LINE
  8
SILK1
 10
1.2794
 20
0.7191
 30
0.0
 11
1.2794
 21
0.7120
 31
0.0
  0
LINE
  8
SILK1
 10
1.2794
 20
0.7120
 30
0.0
 11
1.2723
 21
0.7049
 31
0.0
  0
LINE
  8
SILK1
 10
1.2794
 20
0.7499
 30
0.0
 11
1.2637
 21
0.7499
 31
0.0
  0
LINE
  8
SILK1
 10
1.2637
 20
0.7499
 30
0.0
 11
1.2566
 21
0.7552
 31
0.0
  0
LINE
  8
SILK1
 10
1.2566
 20
0.7552
 30
0.0
 11
1.2637
 21
0.7606
 31
0.0
  0
LINE
  8
SILK1
 10
1.2637
 20
0.7606
 30
0.0
 11
1.2794
 21
0.7606
 31
0.0
  0
LINE
  8
SILK1
 10
1.2637
 20
0.7391
 30
0.0
 11
1.2566
 21
0.7445
 31
0.0
  0
LINE
  8
SILK1
 10
1.2566
 20
0.7445
 30
0.0
 11
1.2637
 21
0.7498
 31
0.0
  0
LINE
  8
SILK1
 10
1.2537
 20
0.7391
 30
0.0
 11
1.2794
 21
0.7391
 31
0.0
  0
LINE
  8
SILK1
 10
0.8400
 20
0.8275
 30
0.0
 11
0.8500
 21
0.7975
 31
0.0
  0
LINE
  8
SILK1
 10
0.8500
 20
0.7975
 30
0.0
 11
0.8600
 21
0.8275
 31
0.0
  0
LINE
  8
SILK1
 10
0.8825
 20
0.7975
 30
0.0
 11
0.8762
 21
0.7975
 31
0.0
  0
LINE
  8
SILK1
 10
0.8700
 20
0.8000
 30
0.0
 11
0.8725
 21
0.7975
 31
0.0
  0
LINE
  8
SILK1
 10
0.8725
 20
0.7975
 30
0.0
 11
0.8862
 21
0.7975
 31
0.0
  0
LINE
  8
SILK1
 10
0.8862
 20
0.7975
 30
0.0
 11
0.8888
 21
0.8000
 31
0.0
  0
LINE
  8
SILK1
 10
0.8888
 20
0.8000
 30
0.0
 11
0.8888
 21
0.8050
 31
0.0
  0
LINE
  8
SILK1
 10
0.8888
 20
0.8050
 30
0.0
 11
0.8862
 21
0.8075
 31
0.0
  0
LINE
  8
SILK1
 10
0.8862
 20
0.8075
 30
0.0
 11
0.8725
 21
0.8075
 31
0.0
  0
LINE
  8
SILK1
 10
0.8725
 20
0.8075
 30
0.0
 11
0.8700
 21
0.8100
 31
0.0
  0
LINE
  8
SILK1
 10
0.8700
 20
0.8100
 30
0.0
 11
0.8700
 21
0.8150
 31
0.0
  0
LINE
  8
SILK1
 10
0.8700
 20
0.8150
 30
0.0
 11
0.8725
 21
0.8175
 31
0.0
  0
LINE
  8
SILK1
 10
0.8725
 20
0.8175
 30
0.0
 11
0.8862
 21
0.8175
 31
0.0
  0
LINE
  8
SILK1
 10
0.8862
 20
0.8175
 30
0.0
 11
0.8888
 21
0.8150
 31
0.0
  0
LINE
  8
SILK1
 10
0.9094
 20
0.8169
 30
0.0
 11
0.9094
 21
0.7975
 31
0.0
  0
LINE
  8
SILK1
 10
0.9094
 20
0.8250
 30
0.0
 11
0.9094
 21
0.8256
 31
0.0
  0
LINE
  8
SILK1
 10
0.9487
 20
0.8037
 30
0.0
 11
0.9425
 21
0.7975
 31
0.0
  0
LINE
  8
SILK1
 10
0.9425
 20
0.7975
 30
0.0
 11
0.9363
 21
0.7975
 31
0.0
  0
LINE
  8
SILK1
 10
0.9363
 20
0.7975
 30
0.0
 11
0.9300
 21
0.8037
 31
0.0
  0
LINE
  8
SILK1
 10
0.9300
 20
0.8037
 30
0.0
 11
0.9300
 21
0.8125
 31
0.0
  0
LINE
  8
SILK1
 10
0.9300
 20
0.8125
 30
0.0
 11
0.9363
 21
0.8175
 31
0.0
  0
LINE
  8
SILK1
 10
0.9363
 20
0.8175
 30
0.0
 11
0.9425
 21
0.8175
 31
0.0
  0
LINE
  8
SILK1
 10
0.9425
 20
0.8175
 30
0.0
 11
0.9487
 21
0.8113
 31
0.0
  0
LINE
  8
SILK1
 10
0.9487
 20
0.8113
 30
0.0
 11
0.9487
 21
0.7925
 31
0.0
  0
LINE
  8
SILK1
 10
0.9487
 20
0.7925
 30
0.0
 11
0.9425
 21
0.7863
 31
0.0
  0
LINE
  8
SILK1
 10
0.9425
 20
0.7863
 30
0.0
 11
0.9363
 21
0.7863
 31
0.0
  0
LINE
  8
SILK1
 10
0.9363
 20
0.7863
 30
0.0
 11
0.9300
 21
0.7900
 31
0.0
  0
ENDSEC
  0
EOF
